<svg width="17" height="20" viewBox="0 0 17 20" fill="none" xmlns="http://www.w3.org/2000/svg">
<path d="M16.0159 16.2404C16.0008 15.8517 15.903 15.4855 15.7222 15.1412C15.7295 15.1901 15.8385 15.8534 15.8778 16.3381C15.4453 16.6133 14.9791 16.8054 14.4787 16.9138C10.1764 17.9607 8.95366 16.9138 8.95366 16.9138L7.30182 2.40898C7.2934 2.4101 7.28441 2.4101 7.27599 2.40898L8.6835 16.9138C8.6835 16.9138 7.46077 17.9607 3.15735 16.9138C2.72544 16.8177 2.31543 16.6627 1.92788 16.4487C1.90373 16.0101 1.91328 15.5725 1.95765 15.1356C1.84027 15.3007 1.75602 15.4821 1.70603 15.6793C1.65604 15.8764 1.64312 16.0758 1.66784 16.2774C-0.278868 14.8491 1.72569 12.2307 1.72569 12.2307L3.36966 3.06387C3.44155 2.6342 3.59151 2.23374 3.82011 1.86361C5.00464 -0.0151377 7.12322 0.837458 7.12322 0.837458C7.12322 0.837458 11.3115 -1.48893 13.5239 1.61311C13.9181 2.17645 14.1737 2.79652 14.2917 3.47444L15.9081 12.2324C15.9081 12.2324 17.8801 14.8025 16.0159 16.2404Z" fill="#A44F4F"/>
<path d="M4.41416 7.21334C4.69499 7.73119 4.78766 8.62928 4.32149 8.55009C4.05639 8.50403 3.8087 8.41024 3.57954 8.26982C3.34982 8.12941 3.1538 7.95136 2.99205 7.73568C2.67639 7.23806 2.7949 6.7028 3.22401 6.49667C3.83397 6.19787 4.13558 6.69213 4.41416 7.21334Z" fill="#F7D2BE"/>
<path d="M13.1225 7.21334C12.8405 7.73119 12.7478 8.62928 13.214 8.55009C13.4791 8.50403 13.7268 8.4108 13.9565 8.26982C14.1862 8.12941 14.3817 7.95136 14.544 7.73568C14.8591 7.23806 14.7423 6.7028 14.3115 6.49667C13.7015 6.19787 13.4033 6.69213 13.1225 7.21334Z" fill="#F7D2BE"/>
<path d="M14.3662 7.53676C14.2662 7.67043 14.1455 7.78108 14.0034 7.8687C13.8613 7.95632 13.7079 8.01473 13.5439 8.04394C13.649 7.64066 13.7158 7.23122 13.7433 6.81559C13.7748 6.7847 13.8096 6.75942 13.8495 6.74033C13.8888 6.72123 13.9304 6.70888 13.9736 6.70382C14.0174 6.69877 14.0607 6.70101 14.1034 6.71C14.146 6.71955 14.1865 6.73583 14.2236 6.7583C14.4909 6.88748 14.565 7.22392 14.3662 7.53676Z" fill="#DD7D67"/>
<path d="M3.1798 7.53676C3.28034 7.67043 3.40109 7.78108 3.54319 7.8687C3.68529 7.95632 3.83862 8.01473 4.00263 8.04394C3.8976 7.64066 3.83076 7.23122 3.80324 6.81559C3.77179 6.7847 3.7364 6.75942 3.69709 6.74033C3.65777 6.72123 3.61621 6.70888 3.5724 6.70382C3.52915 6.69877 3.4859 6.70101 3.44322 6.71C3.40053 6.71955 3.36009 6.73583 3.32246 6.7583C3.05567 6.88748 2.98153 7.22392 3.1798 7.53676Z" fill="#DD7D67"/>
<path d="M14.9023 19.2176H2.4082L3.36976 15.2883C3.64497 14.1751 4.75144 13.3798 6.02921 13.3798H7.15646C7.21655 13.3803 7.2744 13.3702 7.33001 13.3483C7.38617 13.327 7.4356 13.295 7.47885 13.254C7.52266 13.2124 7.55636 13.1647 7.58107 13.1096C7.60578 13.0551 7.6187 12.9973 7.62095 12.9378V11.4707H10.0771V13.004C10.0788 13.0551 10.0911 13.1046 10.1125 13.1517C10.1338 13.1984 10.1636 13.2394 10.2012 13.2747C10.2388 13.3096 10.2821 13.3365 10.3298 13.3545C10.3781 13.373 10.4281 13.3809 10.4798 13.3798H11.2914C12.568 13.3798 13.6666 14.1695 13.939 15.2787L14.9023 19.2176Z" fill="#F7CCBF"/>
<mask id="mask0_161_323" style="mask-type:luminance" maskUnits="userSpaceOnUse" x="7" y="11" width="4" height="2">
<path d="M7.10352 11.4551H10.4106V12.8929H7.10352V11.4551Z" fill="white"/>
</mask>
<g mask="url(#mask0_161_323)">
<mask id="mask1_161_323" style="mask-type:luminance" maskUnits="userSpaceOnUse" x="2" y="11" width="13" height="9">
<path d="M14.9013 19.2157H2.40723L3.36878 15.2863C3.644 14.1731 4.75046 13.3778 6.02823 13.3778H7.15548C7.28017 13.3801 7.38801 13.3379 7.47787 13.252C7.5683 13.1661 7.61548 13.0605 7.61997 12.9358V11.4688H10.0761V13.0021C10.0806 13.1094 10.1216 13.1992 10.2002 13.2728C10.2789 13.3458 10.3715 13.3806 10.4788 13.3778H11.2904C12.567 13.3778 13.6657 14.1675 13.9381 15.2768L14.9013 19.2157Z" fill="white"/>
</mask>
<g mask="url(#mask1_161_323)">
<path d="M7.19824 11.7013L10.2424 11.4688L10.3643 12.8774C9.20392 12.8055 8.15194 12.4472 7.41729 11.8737L7.19824 11.7013Z" fill="#DA8374"/>
</g>
</g>
<path d="M13.5549 7.20586C13.3224 9.84284 11.0533 11.9828 8.76791 11.999C6.37188 12.0165 4.18142 9.84508 3.98091 7.20586C3.65683 2.98781 6.12363 2.41211 8.76791 2.41211C11.4116 2.41211 13.8958 3.3439 13.5549 7.20586Z" fill="#F6D3BD"/>
<path d="M7.19824 3.0492C7.19824 3.0492 9.84814 6.76232 12.8508 6.52698C15.8534 6.29221 8.49174 2.21289 8.49174 2.21289L7.19824 3.0492Z" fill="#DD7D67"/>
<path d="M6.71368 3.70117C6.50137 4.23531 6.22167 4.73237 5.87569 5.19181C5.52971 5.65068 5.12924 6.05564 4.6743 6.40668C3.17973 7.53617 5.09779 5.05364 5.09779 5.05364L6.71368 3.70117Z" fill="#DD7D67"/>
<path d="M6.51953 5.46999C6.51953 5.46999 7.30978 4.98472 7.33169 2.63867L6.7133 3.02734C6.7133 3.02734 7.05479 4.11471 6.51953 5.46999Z" fill="#DD7D67"/>
<path d="M3.94345 6.26209C3.94345 6.26209 3.72272 8.35595 5.37006 8.98726C5.37006 8.98726 4.29954 7.27645 4.78987 5.81445" fill="#A44F4F"/>
<path d="M13.5911 6.34078C13.5911 6.34078 13.8113 8.43464 12.165 9.06594C12.165 9.06594 13.2361 7.35513 12.7452 5.89258" fill="#A44F4F"/>
<path d="M13.5854 6.40653C9.39598 6.27285 7.15103 3.054 7.15103 3.054C7.15103 3.054 7.31447 4.51992 6.51973 5.46912C6.51973 5.46912 6.67756 4.55811 6.51973 3.96388C6.51973 3.96388 5.02123 6.27061 3.95352 6.55312L3.43848 4.37558L5.23915 2.41202L9.17075 1.86328L13.2793 2.77373L14.2515 4.63506L13.5854 6.40653Z" fill="#A44F4F"/>
<path d="M8.76959 10.3064C9.90639 10.3064 10.1619 9.47459 10.2209 9.06177C10.2248 9.03144 10.2226 9.00167 10.2142 8.97247C10.2058 8.94326 10.1923 8.91686 10.1737 8.89327C10.1546 8.86968 10.1316 8.85003 10.1052 8.83598C10.0788 8.82138 10.0502 8.81239 10.0204 8.80959C9.1723 8.71972 8.3242 8.71972 7.4761 8.80959C7.45138 8.81183 7.42836 8.81857 7.40645 8.83037C7.38455 8.84216 7.36601 8.85789 7.35085 8.87755C7.33568 8.8972 7.32501 8.91855 7.31883 8.9427C7.31209 8.96629 7.31097 8.99044 7.31434 9.01515C7.37275 9.40944 7.62325 10.3087 8.76959 10.3064Z" fill="#DD7D67"/>
<mask id="mask2_161_323" style="mask-type:luminance" maskUnits="userSpaceOnUse" x="7" y="8" width="4" height="2">
<path d="M7.24805 8.72461H10.2675V9.4396H7.24805V8.72461Z" fill="white"/>
</mask>
<g mask="url(#mask2_161_323)">
<mask id="mask3_161_323" style="mask-type:luminance" maskUnits="userSpaceOnUse" x="7" y="8" width="4" height="3">
<path d="M8.76882 10.3045C9.90561 10.3045 10.1612 9.47264 10.2201 9.05982C10.228 8.99691 10.2123 8.94075 10.173 8.89132C10.1331 8.84189 10.082 8.81381 10.0196 8.80763C9.17152 8.71777 8.32342 8.71777 7.47532 8.80763C7.42365 8.81213 7.38208 8.83459 7.35007 8.87559C7.31862 8.91603 7.30626 8.96209 7.31356 9.0132C7.37197 9.40748 7.62247 10.3067 8.76882 10.3045Z" fill="white"/>
</mask>
<g mask="url(#mask3_161_323)">
<path d="M7.12305 8.66211H10.4295V9.34452H7.12305V8.66211Z" fill="#FFF3E7"/>
</g>
</g>
<path d="M4.86875 2.78973C4.8974 2.80321 4.91986 2.82792 4.93503 2.86387C4.95076 2.90038 4.95862 2.94531 4.95862 2.99923C4.95862 3.05315 4.95076 3.11156 4.93559 3.17447C4.91986 3.23737 4.89796 3.30084 4.86875 3.36318C4.84011 3.42609 4.80697 3.48394 4.76934 3.5373C4.73171 3.59009 4.69295 3.6339 4.65195 3.66929C4.61151 3.70411 4.5722 3.7277 4.53457 3.73949C4.49694 3.75129 4.4638 3.75016 4.43515 3.73725C4.40595 3.72377 4.38404 3.69905 4.36832 3.66255C4.35259 3.6266 4.34473 3.58167 4.34473 3.52775C4.34473 3.47383 4.35259 3.41542 4.36832 3.35251C4.38348 3.28904 4.40595 3.22614 4.43459 3.16323C4.46324 3.10089 4.49637 3.04304 4.53401 2.98968C4.57164 2.93688 4.61095 2.89308 4.65139 2.85769C4.69239 2.82287 4.73115 2.79928 4.76878 2.78748C4.80641 2.77569 4.83955 2.77681 4.86875 2.78973Z" fill="#F6D3BD"/>
<path d="M5.07633 3.18462C5.10329 3.19754 5.12576 3.21776 5.14317 3.24696C5.16058 3.27561 5.17125 3.31043 5.17631 3.35087C5.1808 3.39187 5.17911 3.43512 5.17013 3.48173C5.1617 3.52779 5.1471 3.57385 5.12632 3.61878C5.1061 3.66371 5.08082 3.70471 5.05162 3.74122C5.02185 3.77829 4.9904 3.80806 4.9567 3.83109C4.92244 3.85411 4.8893 3.86815 4.85616 3.87377C4.82302 3.87939 4.79269 3.87602 4.76573 3.86366C4.73821 3.85074 4.71575 3.83052 4.6989 3.80132C4.68149 3.77267 4.67025 3.73785 4.66576 3.69741C4.6607 3.65641 4.66295 3.61316 4.67138 3.56654C4.68036 3.52049 4.69497 3.47443 4.71519 3.4295C4.73597 3.38457 4.76068 3.34357 4.79045 3.30706C4.81965 3.26999 4.85167 3.24022 4.88537 3.21719C4.91907 3.19417 4.95277 3.18012 4.9859 3.17451C5.01904 3.16889 5.04881 3.17226 5.07633 3.18462Z" fill="#F6D3BD"/>
<path d="M13.4361 3.32574C13.4625 3.38359 13.4816 3.44257 13.4939 3.5021C13.5057 3.56164 13.5096 3.61724 13.5052 3.66948C13.5007 3.72115 13.4883 3.76496 13.4681 3.80147C13.4484 3.83741 13.4215 3.86325 13.3889 3.87841C13.3558 3.89358 13.3192 3.89695 13.2788 3.88852C13.2384 3.8801 13.1968 3.861 13.1547 3.83067C13.1126 3.79978 13.0732 3.76103 13.0362 3.71272C12.9985 3.66498 12.9671 3.61163 12.9401 3.55377C12.9137 3.49536 12.8941 3.43639 12.8823 3.37685C12.8699 3.31732 12.8665 3.26171 12.871 3.21004C12.875 3.15837 12.8873 3.114 12.9075 3.07805C12.9278 3.04154 12.9542 3.01627 12.9873 3.0011C13.0199 2.98594 13.0569 2.98257 13.0974 2.99043C13.1378 2.99886 13.1794 3.01852 13.221 3.04884C13.2631 3.07917 13.303 3.11849 13.34 3.16623C13.3771 3.21453 13.4091 3.26733 13.4361 3.32574Z" fill="#F6D3BD"/>
<path d="M13.1159 3.42009C13.1333 3.45829 13.1445 3.4976 13.149 3.53804C13.1535 3.57848 13.1513 3.61724 13.1423 3.65431C13.1333 3.69081 13.1181 3.72283 13.0968 3.75035C13.0754 3.77787 13.0502 3.79865 13.0198 3.81269C12.9895 3.82617 12.9569 3.83235 12.9227 3.83067C12.8879 3.82898 12.8536 3.81943 12.8199 3.80202C12.7862 3.78517 12.7559 3.76158 12.7278 3.73181C12.7003 3.70205 12.6778 3.66779 12.6604 3.62959C12.643 3.5914 12.6317 3.55208 12.6272 3.51164C12.6228 3.4712 12.625 3.43245 12.634 3.39538C12.643 3.35887 12.6581 3.32686 12.6795 3.29934C12.7008 3.27182 12.7261 3.25104 12.7564 3.23756C12.7868 3.22351 12.8193 3.21734 12.8536 3.21902C12.8884 3.22071 12.9227 3.23025 12.9564 3.24767C12.9901 3.26451 13.0204 3.2881 13.0479 3.31787C13.076 3.34764 13.0985 3.3819 13.1159 3.42009Z" fill="#F6D3BD"/>
<path d="M5.93333 3.16784C5.95692 3.17851 5.97658 3.19592 5.99118 3.22064C6.00634 3.24535 6.01589 3.27456 6.02039 3.30938C6.02488 3.34364 6.02319 3.38071 6.01645 3.42002C6.00915 3.45878 5.9968 3.49753 5.97938 3.53573C5.96197 3.57392 5.94119 3.60818 5.91592 3.63907C5.89064 3.66996 5.86368 3.69524 5.83504 3.71433C5.80583 3.73343 5.77719 3.74522 5.7491 3.75028C5.72046 3.75477 5.69462 3.7514 5.6716 3.74073C5.64801 3.73006 5.62835 3.71209 5.61375 3.68737C5.59858 3.66322 5.58903 3.63345 5.58454 3.59919C5.58005 3.56437 5.58173 3.52786 5.58847 3.48855C5.59577 3.44923 5.60813 3.41048 5.62554 3.37285C5.64295 3.33465 5.66373 3.30039 5.68901 3.26894C5.71428 3.23805 5.74124 3.21333 5.76989 3.19368C5.79909 3.17458 5.82717 3.16279 5.85582 3.15829C5.8839 3.1538 5.9103 3.15661 5.93333 3.16784Z" fill="#F6D3BD"/>
<path d="M11.8689 3.64561C11.8807 3.67145 11.8891 3.69784 11.8936 3.7248C11.8987 3.75176 11.8993 3.77704 11.8965 3.80063C11.8936 3.82422 11.8869 3.84387 11.8768 3.86072C11.8661 3.87757 11.8532 3.88993 11.8369 3.89723C11.8212 3.90453 11.8032 3.90678 11.7836 3.90341C11.7645 3.9006 11.7448 3.89218 11.7251 3.87926C11.7055 3.86634 11.687 3.84893 11.6695 3.82815C11.6527 3.80681 11.6381 3.78322 11.6263 3.75738C11.6145 3.73154 11.6061 3.70515 11.601 3.67819C11.5965 3.65123 11.5954 3.62651 11.5982 3.60292C11.6016 3.57933 11.6083 3.55911 11.6184 3.54226C11.6285 3.52542 11.642 3.51362 11.6577 3.50576C11.674 3.49846 11.692 3.49621 11.7111 3.49958C11.7308 3.50239 11.7504 3.51081 11.7701 3.52373C11.7897 3.53665 11.8083 3.55406 11.8251 3.5754C11.8425 3.59618 11.8571 3.61977 11.8689 3.64561Z" fill="#F6D3BD"/>
<path d="M5.09781 19.2171H4.77148L4.77317 19.2148L5.09781 19.2171Z" fill="#5D6184"/>
<path d="M15.6681 19.1946L12.8188 19.2154H4.81684L1.95801 19.1946C1.95801 19.1946 2.37026 16.6458 3.46662 14.6581C4.56297 12.6698 6.61864 13.3787 6.61864 13.3787H7.24377L7.45158 13.3073L8.82315 14.7581L10.1953 13.3107L10.402 13.382H11.0277C11.0277 13.382 13.0811 12.6839 14.169 14.6615C15.2575 16.6391 15.6681 19.1946 15.6681 19.1946Z" fill="#FFF3E7"/>
<path d="M12.4863 19.2171H12.816L12.8149 19.2148L12.4863 19.2171Z" fill="#5D6184"/>
<path d="M13.264 19.218H4.3584L5.1773 16.0553C5.21493 15.9059 5.26323 15.761 5.32276 15.6189C5.58 14.9943 6.31577 13.2403 6.43541 13.2599C6.55448 13.2796 6.81453 13.3161 6.9482 13.3346C6.96898 13.3374 6.98639 13.3464 6.99987 13.3627C7.01392 13.3784 7.02065 13.397 7.02009 13.4183C7.01055 13.7278 7.03526 14.9163 7.97828 15.0106C8.26697 15.0292 8.54443 14.9825 8.81122 14.8713C9.07801 14.9825 9.35603 15.0292 9.64416 15.0106C10.5877 14.9163 10.6119 13.7312 10.6023 13.4183C10.6023 13.397 10.6085 13.3784 10.6226 13.3627C10.636 13.3464 10.6535 13.3374 10.6748 13.3346C10.8079 13.3161 11.0781 13.2773 11.1876 13.2599C11.2966 13.2425 12.0424 14.9943 12.3002 15.6189C12.3586 15.761 12.4069 15.9065 12.4451 16.0553L13.264 19.218Z" fill="#DD7D67"/>
<path d="M1.39746 12.9429L3.47784 2.62695L3.59129 2.64998L1.51092 12.9659L1.39746 12.9429Z" fill="#A44F4F"/>
<path d="M4.35359 8.692C4.35359 8.73918 4.3446 8.78411 4.32663 8.8268C4.30865 8.87005 4.28338 8.90824 4.25024 8.94138C4.21766 8.97452 4.17947 8.99979 4.13622 9.01776C4.09354 9.03574 4.04861 9.04472 4.00199 9.04472C3.95537 9.04472 3.91044 9.03574 3.86719 9.01776C3.8245 8.99979 3.78631 8.97452 3.75317 8.94138C3.7206 8.90824 3.69476 8.87005 3.67735 8.8268C3.65938 8.78411 3.65039 8.73918 3.65039 8.692C3.65039 8.64539 3.65938 8.60045 3.67735 8.55721C3.69476 8.51396 3.7206 8.47576 3.75317 8.44319C3.78631 8.41005 3.8245 8.38421 3.86719 8.3668C3.91044 8.34883 3.95537 8.33984 4.00199 8.33984C4.04861 8.33984 4.09354 8.34883 4.13622 8.3668C4.17947 8.38421 4.21766 8.41005 4.25024 8.44319C4.28338 8.47576 4.30865 8.51396 4.32663 8.55721C4.3446 8.60045 4.35359 8.64539 4.35359 8.692Z" fill="#FFF3E7"/>
<path d="M13.8204 8.692C13.8204 8.73918 13.8114 8.78411 13.7934 8.8268C13.7754 8.87005 13.7502 8.90824 13.717 8.94138C13.6845 8.97452 13.6463 8.99979 13.603 9.01776C13.5598 9.03574 13.5154 9.04472 13.4688 9.04472C13.4222 9.04472 13.3772 9.03574 13.334 9.01776C13.2907 8.99979 13.2531 8.97452 13.22 8.94138C13.1868 8.90824 13.1616 8.87005 13.1436 8.8268C13.1262 8.78411 13.1172 8.73918 13.1172 8.692C13.1172 8.64539 13.1262 8.60045 13.1436 8.55721C13.1616 8.51396 13.1868 8.47576 13.22 8.44319C13.2531 8.41005 13.2907 8.38421 13.334 8.3668C13.3772 8.34883 13.4222 8.33984 13.4688 8.33984C13.5154 8.33984 13.5598 8.34883 13.603 8.3668C13.6463 8.38421 13.6845 8.41005 13.717 8.44319C13.7502 8.47576 13.7754 8.51396 13.7934 8.55721C13.8114 8.60045 13.8204 8.64539 13.8204 8.692Z" fill="#FFF3E7"/>
<path d="M11.3471 6.93164C10.7843 6.94119 10.2547 7.07879 9.75872 7.34446C9.70031 7.37591 9.73064 7.4888 9.79467 7.47813C10.3041 7.38771 11.2016 7.23774 11.3943 7.26302C11.6661 7.30009 11.3471 6.93164 11.3471 6.93164Z" fill="#443522"/>
<path d="M6.19173 6.93164C6.75395 6.94119 7.28303 7.07879 7.77897 7.34446C7.83795 7.37591 7.80762 7.4888 7.74415 7.47813C7.23473 7.38771 6.33551 7.23774 6.14399 7.26302C5.87383 7.30009 6.19173 6.93164 6.19173 6.93164Z" fill="#443522"/>
<path d="M6.04534 6.03356L6.03804 5.9847C6.03298 5.95942 6.03804 5.93639 6.05264 5.91561C6.06724 5.89427 6.0869 5.88191 6.11218 5.87798C6.50646 5.80609 6.90355 5.76734 7.30401 5.76172C7.33041 5.76228 7.35232 5.77295 7.36973 5.79261C7.3877 5.81227 7.395 5.8353 7.39332 5.86169V5.91056C7.39163 5.93471 7.38208 5.95493 7.36411 5.97122C7.34558 5.98751 7.32479 5.99537 7.30064 5.99424C6.91535 6.00042 6.53286 6.03862 6.1543 6.10826C6.12846 6.11332 6.10544 6.10882 6.08409 6.09422C6.06219 6.07962 6.04927 6.0594 6.04534 6.03356Z" fill="#443522"/>
<path d="M11.5699 6.03356L11.5783 5.9847C11.5828 5.95998 11.5777 5.93696 11.5631 5.91561C11.5485 5.89483 11.5289 5.88248 11.5036 5.87798C11.1099 5.80609 10.7128 5.76734 10.3123 5.76172C10.2859 5.76228 10.264 5.77295 10.2466 5.79261C10.2286 5.81227 10.2208 5.8353 10.223 5.86169V5.91056C10.2247 5.93415 10.2343 5.95437 10.2522 5.97066C10.2696 5.98694 10.2904 5.99481 10.3146 5.99424C10.6999 5.99874 11.0818 6.03468 11.4609 6.10208C11.4856 6.1077 11.5081 6.10377 11.5294 6.09029C11.5508 6.07681 11.5643 6.05827 11.5699 6.03356Z" fill="#443522"/>
<path d="M8.81183 8.04439H8.72702C8.71242 8.04439 8.69782 8.04158 8.68434 8.0354C8.6703 8.02922 8.6585 8.0208 8.64839 8.00956C8.63828 7.99833 8.63098 7.98597 8.62649 7.97193C8.62199 7.95733 8.62031 7.94273 8.62143 7.92812L8.70624 6.91602H8.8225L8.91967 7.92925C8.92136 7.94441 8.91967 7.95901 8.91462 7.97306C8.91012 7.98766 8.90226 8.00001 8.89215 8.01125C8.88148 8.02248 8.86968 8.03091 8.85564 8.03652C8.8416 8.04214 8.827 8.04495 8.81183 8.04439Z" fill="#DD7D67"/>
<path d="M5.58008 8.63536L5.69522 8.19727L5.80699 8.22703L5.69241 8.66456L5.58008 8.63536Z" fill="#DD7D67"/>
<path d="M5.80762 8.6348L5.9222 8.19727L6.03453 8.22703L5.91995 8.66456L5.80762 8.6348Z" fill="#DD7D67"/>
<path d="M6.03516 8.6348L6.14973 8.19727L6.26207 8.22703L6.14749 8.66456L6.03516 8.6348Z" fill="#DD7D67"/>
<path d="M11.5049 8.63536L11.6195 8.19727L11.7318 8.22703L11.6172 8.66456L11.5049 8.63536Z" fill="#DD7D67"/>
<path d="M11.7314 8.63536L11.8466 8.19727L11.9584 8.22703L11.8438 8.66456L11.7314 8.63536Z" fill="#DD7D67"/>
<path d="M11.959 8.6348L12.0736 8.19727L12.1859 8.22703L12.0713 8.66456L11.959 8.6348Z" fill="#DD7D67"/>
</svg>
