<svg width="73" height="37" viewBox="0 0 73 37" fill="none" xmlns="http://www.w3.org/2000/svg">
<path d="M9.62261 12.6405C10.147 12.9327 10.4958 13.3199 10.728 13.8179C11.0968 14.6057 10.998 15.3769 10.6369 16.1271C10.4503 16.5144 10.1492 16.5708 9.81036 16.3031C9.53262 16.084 9.33821 15.7863 9.13602 15.5008C8.87939 15.1401 8.87717 15.1346 8.52834 15.3736C8.29282 15.5363 8.00953 15.586 7.75735 15.7089C6.80194 16.1736 5.80209 16.4934 4.74226 16.6162C3.79352 16.7257 2.85922 16.6726 1.96047 16.3274C1.68718 16.2223 1.42833 16.0729 1.17837 15.918C0.83287 15.7056 0.782878 15.4511 0.972848 15.0981C1.09283 14.8757 1.27836 14.7374 1.50499 14.6422C1.67385 14.5714 1.84716 14.5116 2.01046 14.432C2.19932 14.339 2.21377 14.2715 2.08156 14.1122C2.00158 14.0148 1.90604 13.9307 1.81827 13.8411C1.7505 13.7714 1.67385 13.705 1.61608 13.6264C1.1706 13.019 1.4961 12.6837 2.00047 12.5863C2.51483 12.4867 3.00809 12.6062 3.51023 12.6461C3.80352 12.6682 4.09681 12.7036 4.3912 12.7302C4.44564 12.7346 4.50785 12.739 4.55784 12.7202C5.28884 12.4414 6.08094 12.4801 6.82971 12.2876C6.96525 12.2533 7.10411 12.2278 7.24298 12.2068C7.71846 12.1349 8.02064 11.9058 8.24505 11.4433C8.59388 10.7274 9.08269 10.0856 9.67149 9.53129C9.84035 9.37195 10.0348 9.27016 10.257 9.21372C10.6702 9.1075 10.9791 9.28565 11.099 9.69284C11.1946 10.0159 11.1368 10.3412 11.0468 10.6455C10.8913 11.1722 10.6591 11.6613 10.2081 12.022C10.0026 12.1858 9.84258 12.4049 9.62372 12.6405H9.62261Z" fill="#FCC0C5"/>
<mask id="mask0_161_274" style="mask-type:luminance" maskUnits="userSpaceOnUse" x="0" y="0" width="12" height="24">
<path d="M0.817383 0H11.4513V23.3693H0.817383V0Z" fill="white"/>
</mask>
<g mask="url(#mask0_161_274)">
<path d="M10.1101 9.00982C10.159 8.96778 10.2112 8.9213 10.2723 8.86708C10.3656 8.84385 10.4689 8.79406 10.57 8.79848C10.6256 8.8007 10.6767 8.77082 10.7133 8.78188C10.8578 8.82393 10.9955 8.88479 11.1333 8.9379C11.231 9.09392 11.3255 9.24551 11.4166 9.39267C11.4199 9.42587 11.421 9.45353 11.4254 9.48119C11.481 9.83859 11.3355 10.1584 11.2355 10.4859C11.2233 10.5246 11.1977 10.5611 11.1744 10.5943C11.0288 10.7957 10.91 11.0148 10.7633 11.2118C10.6222 11.3988 10.5011 11.6046 10.3201 11.7639C10.2412 11.8325 10.2034 11.9365 10.0968 11.9929C9.99011 12.0505 9.91679 12.1678 9.82014 12.2485C9.73682 12.3194 9.64128 12.3769 9.55351 12.4422C9.53351 12.4566 9.52129 12.4831 9.49463 12.5207C9.6746 12.6934 9.85791 12.866 10.0379 13.0441C10.1579 13.1614 10.2901 13.2732 10.3834 13.4104C10.5222 13.614 10.6311 13.8375 10.7511 14.0521C10.7789 14.1008 10.8022 14.1506 10.8366 14.217V15.7827C10.7144 16.0903 10.6233 16.4079 10.2023 16.4886H9.89457C9.76459 16.4223 9.65461 16.3647 9.51685 16.2928C9.258 16.0527 9.02804 15.7119 8.82585 15.2715C8.84029 15.2494 8.85695 15.2261 8.87806 15.194C8.81363 15.1553 8.74919 15.1177 8.66698 15.069C8.58922 15.1575 8.50701 15.2516 8.42258 15.3467C8.51145 15.6234 8.45146 15.9155 8.4659 16.2032C8.46813 16.2541 8.43702 16.3072 8.41702 16.3703C8.42702 16.3913 8.4448 16.4267 8.47035 16.4765C8.45257 16.5174 8.43258 16.5672 8.41258 16.6159C8.52812 16.8538 8.42591 17.1105 8.47812 17.3351C8.45257 17.3794 8.43924 17.4037 8.4248 17.4281C8.44035 17.5177 8.46146 17.6073 8.46813 17.698C8.47701 17.8098 8.47257 17.9216 8.47368 18.0333C8.47368 18.1318 8.47368 18.2292 8.47368 18.3442C8.49368 18.3808 8.51923 18.4283 8.56144 18.5047C8.56144 18.643 8.557 18.8112 8.56256 18.9783C8.567 19.0878 8.54256 19.2018 8.62032 19.3014C8.64143 19.3301 8.64476 19.3832 8.63921 19.422C8.59477 19.7041 8.76363 19.9619 8.73142 20.243C8.82696 20.4234 8.8003 20.6192 8.81585 20.8128C8.82696 20.9478 8.92583 21.0673 8.90361 21.2123C9.00915 21.365 8.9836 21.5575 9.05803 21.7224C9.15691 21.9382 9.17468 22.1738 9.14135 22.4195C9.05803 22.4604 8.9736 22.5025 8.87917 22.5489C8.80141 22.477 8.73142 22.4106 8.67032 22.3553C8.62366 22.1949 8.58477 22.0499 8.53923 21.9072C8.49368 21.7644 8.43702 21.625 8.39703 21.4812C8.35925 21.3506 8.31482 21.2156 8.31482 21.0817C8.31482 20.9235 8.24594 20.7863 8.22816 20.6369C8.21039 20.4853 8.22483 20.3304 8.22483 20.1844C8.04708 19.9442 8.21594 19.6521 8.08374 19.4131C8.06819 19.1631 8.05152 18.913 8.03264 18.6308C8.0293 18.6253 8.01042 18.5877 7.97598 18.5224C7.9882 18.3885 7.94598 18.227 8.01708 18.0621C8.04264 18.0057 7.97043 17.9138 7.97043 17.8375C7.9682 17.3617 7.96043 16.8848 7.98153 16.4101C7.9882 16.222 8.05708 16.035 8.07596 15.8436C8.07819 15.8203 8.10818 15.7993 8.12485 15.7772C8.10374 15.7418 8.08263 15.7075 8.05486 15.661C8.07263 15.6178 8.09485 15.568 8.11596 15.5182C8.09596 15.5094 8.06263 15.4828 8.05263 15.4906C7.63492 15.765 7.155 15.8945 6.69285 16.0615C6.31957 16.1954 5.93297 16.2928 5.5608 16.4289C5.45082 16.4687 5.33084 16.4532 5.24085 16.5041C5.1342 16.5628 5.02644 16.5517 4.91979 16.5772C4.71649 16.6259 4.51541 16.6768 4.30433 16.659C3.9255 16.804 3.5289 16.7088 3.11785 16.752C3.0923 16.773 3.05008 16.8073 3.01009 16.8394C3.04897 16.9711 3.08563 17.0961 3.12229 17.22C3.10674 17.2543 3.09008 17.292 3.07341 17.3307C3.09896 17.3827 3.12451 17.4314 3.14007 17.4635C3.18117 17.6294 3.11229 17.7866 3.20117 17.9315C3.28227 18.0643 3.18451 18.2402 3.2956 18.3708C3.31115 18.3896 3.31448 18.4239 3.31337 18.4505C3.31004 18.6585 3.33893 18.861 3.39669 19.0635C3.43336 19.194 3.38225 19.3578 3.4378 19.4729C3.51112 19.6211 3.44335 19.7849 3.52779 19.9155C3.60666 20.0383 3.53223 20.1976 3.63666 20.3116C3.65221 20.3282 3.65554 20.3658 3.64999 20.3913C3.61222 20.6325 3.74775 20.846 3.75331 21.0839C3.75664 21.2145 3.83885 21.3384 3.8344 21.4834C3.83107 21.6184 3.92994 21.7401 3.91772 21.8839C3.90661 22.0234 4.02771 22.1384 4.00216 22.2834C4.08992 22.4693 4.12103 22.6751 4.20435 22.8599C4.24656 22.955 4.25545 23.0458 4.25212 23.1586C4.22434 23.1907 4.1899 23.2339 4.14991 23.2825C4.06104 23.2438 3.97771 23.2062 3.90661 23.173C3.75553 22.9041 3.64443 22.6076 3.57333 22.2834C3.47224 22.1517 3.51445 21.9902 3.48446 21.8441C3.45002 21.6837 3.40003 21.5287 3.39781 21.3583C3.39558 21.209 3.32004 21.0718 3.27338 20.929C3.26449 20.9036 3.2445 20.877 3.24672 20.8527C3.27449 20.6126 3.12451 20.4012 3.14229 20.1589C3.15007 20.056 3.09008 19.9487 3.0723 19.8424C3.0523 19.7207 3.08341 19.5946 3.01009 19.4773C2.9501 19.3844 3.01231 19.2549 2.93566 19.1575C2.91344 19.1288 2.9101 19.0801 2.90899 19.0391C2.90011 18.8599 2.92232 18.6795 2.82901 18.5091C2.79901 18.4549 2.82012 18.3708 2.82012 18.3022C2.82012 18.051 2.82012 17.7987 2.82012 17.5885C2.77901 17.4989 2.75568 17.4491 2.73569 17.4059C2.76124 17.3572 2.78012 17.3207 2.7979 17.2864C2.7779 17.2499 2.75902 17.2123 2.73902 17.1736C2.76235 17.1094 2.79568 17.0474 2.80679 16.981C2.81901 16.9158 2.80901 16.846 2.80901 16.7863C2.61015 16.7122 2.43462 16.6281 2.23354 16.6613C2.11912 16.6037 2.01358 16.5119 1.89804 16.4986C1.65808 16.4732 1.49921 16.3083 1.31702 16.1943C1.12705 16.0759 1.02262 15.8723 0.954853 15.6566C0.938189 15.6046 0.911527 15.5559 0.875977 15.4773V14.8886C1.0515 14.6087 1.29591 14.435 1.59364 14.3265C1.76695 14.2756 1.95248 14.3321 2.15356 14.2756C2.06468 14.1938 2.00358 14.1097 1.92137 14.0665C1.75584 13.9791 1.62475 13.864 1.54032 13.6981C1.5281 13.6759 1.5081 13.6483 1.48699 13.6405C1.30035 13.5774 1.27036 13.4048 1.21148 13.2532C1.18815 13.1902 1.16815 13.1249 1.1426 13.0508C1.17482 12.9445 1.21037 12.8283 1.25258 12.6934C1.38923 12.6214 1.53587 12.5462 1.71473 12.4521H2.4124C2.48461 12.3957 2.48128 12.3404 2.48128 12.284C2.48128 11.962 2.48128 11.64 2.48684 11.3191C2.48795 11.266 2.51128 11.214 2.53016 11.1365C2.46351 10.9882 2.37241 10.8245 2.26021 10.6674C2.12467 10.4781 2.05246 10.248 1.98469 10.0278C1.88693 9.71577 1.76251 9.41148 1.6803 9.09613C1.61475 8.84606 1.52143 8.60263 1.47366 8.34703C1.44144 8.1722 1.35479 8.00734 1.37479 7.82366C1.26592 7.67539 1.34035 7.48949 1.2848 7.34012C1.1826 7.06792 1.21703 6.79129 1.21037 6.51578C1.20148 6.20817 1.21037 5.89946 1.21481 5.59185C1.21703 5.48231 1.20926 5.37498 1.27147 5.26765C1.30924 5.20347 1.29036 5.10499 1.29813 5.02311C1.30813 4.92684 1.29813 4.82173 1.33924 4.73985C1.39145 4.63141 1.36923 4.52076 1.39034 4.41343C1.40812 4.32048 1.44367 4.23086 1.47033 4.13902C1.5181 3.98189 1.61808 3.8469 1.65585 3.68203C1.67807 3.58023 1.76028 3.4884 1.83027 3.40319C1.97914 3.22173 2.09579 3.01592 2.27465 2.85327C2.43684 2.7061 2.6257 2.63528 2.82234 2.57443C3.01231 2.51357 3.20117 2.51025 3.38781 2.60762C3.44335 2.6375 3.52556 2.61979 3.61666 2.62422C3.68998 2.52132 3.77441 2.41399 3.84662 2.29891C4.07437 1.93598 4.37432 1.66157 4.78759 1.52104C4.81314 1.51219 4.83536 1.49227 4.85202 1.48231C4.97867 1.49891 5.09865 1.50776 5.21752 1.53321C5.32306 1.55534 5.42527 1.59407 5.5297 1.62726C5.77743 1.27872 5.99185 0.925745 6.29513 0.634736C6.41511 0.574985 6.53954 0.513021 6.68618 0.438885C6.79172 0.402371 6.94503 0.483145 7.05835 0.381347C7.155 0.406797 7.24498 0.430033 7.34497 0.456589C7.50828 0.574985 7.63937 0.732107 7.72491 0.925745C7.86378 0.875952 7.88822 0.775261 7.88933 0.661292C8.24149 0.246355 8.30704 0.197669 8.51701 0.0792733C8.60921 0.0272678 8.69809 0.0173095 8.81696 0.0228419C8.93694 0.078167 9.07359 0.142344 9.20246 0.202095C9.35132 0.343726 9.49352 0.478719 9.62017 0.598221C9.68793 0.776367 9.74681 0.930171 9.81903 1.11828V1.44359C9.86013 1.53764 9.91012 1.60624 10.0034 1.61177C10.1801 1.61952 10.3178 1.72574 10.4545 1.80762C10.6467 1.92049 10.7855 2.09974 10.8355 2.3321C10.85 2.39849 10.8822 2.46046 10.9089 2.53349C10.9089 2.81675 10.9166 3.11108 10.9066 3.40541C10.9011 3.55479 10.8178 3.69199 10.8311 3.85022C10.8455 4.00181 10.8411 4.15561 10.7567 4.29393C10.7433 4.31495 10.7533 4.34925 10.7511 4.37802C10.74 4.51412 10.7544 4.6469 10.6822 4.78411C10.6233 4.89807 10.6956 5.06184 10.5978 5.18355C10.6145 5.39489 10.5067 5.5841 10.4923 5.79102C10.4789 5.98134 10.3789 6.15948 10.3945 6.35755C10.3023 6.52684 10.2856 6.72712 10.1979 6.8942C10.1068 7.06902 10.0879 7.25934 10.0134 7.43528C9.94456 7.59793 9.88568 7.76501 9.82458 7.93099C9.81014 7.96971 9.81236 8.01397 9.79681 8.0516C9.71349 8.23859 9.61128 8.41231 9.5524 8.6148C9.49574 8.80955 9.37909 8.9888 9.27356 9.16695C9.09803 9.46459 8.92472 9.76445 8.68143 10.0145C8.63366 10.0643 8.59255 10.1219 8.557 10.1805C8.42147 10.4095 8.26705 10.6231 8.05597 10.7902V11.0779C8.10041 11.2549 8.13262 11.3844 8.1715 11.5393C8.27704 11.2815 8.4148 11.069 8.49146 10.8178C8.56256 10.5844 8.73364 10.3885 8.86251 10.1772C8.97916 9.98575 9.12913 9.82089 9.28467 9.65934C9.35132 9.58963 9.4302 9.52324 9.47575 9.44136C9.51796 9.3639 9.5724 9.31079 9.64128 9.2621C9.74459 9.19129 9.84124 9.11162 9.96345 9.01867C9.99122 9.01757 10.0445 9.01314 10.1056 9.00982H10.1101ZM9.73904 7.1675C9.74904 7.08673 9.75459 6.98272 9.7957 6.87317C9.88679 6.63085 9.94123 6.37525 9.999 6.12297C10.0168 6.0433 10.059 5.96917 10.0734 5.8895C10.0912 5.79434 10.0657 5.68258 10.1068 5.60291C10.1623 5.49448 10.1634 5.38715 10.1667 5.27871C10.1723 5.15257 10.2623 5.05298 10.2567 4.91799C10.2512 4.7996 10.3123 4.68009 10.3278 4.55838C10.3445 4.43445 10.3389 4.3072 10.3512 4.18217C10.3534 4.14676 10.3834 4.11357 10.3989 4.08148C10.3001 3.95534 10.3401 3.84247 10.4178 3.71855V2.51578C10.3734 2.44054 10.3323 2.36862 10.2923 2.30223C10.1012 2.20818 9.91457 2.11744 9.72348 2.0245C9.4713 2.0245 9.21801 2.02339 8.96472 2.0256C8.9125 2.0256 8.8614 2.04552 8.80807 2.05659V2.62975C8.72697 2.81122 8.65143 2.95949 8.49368 3.0292C8.35925 3.0292 8.21705 3.06682 8.11151 3.02035C7.97376 2.9606 7.836 2.98051 7.7038 2.9451C7.58715 2.91302 7.4805 2.84331 7.40718 2.8079C7.28498 2.78798 7.20277 2.7747 7.11278 2.76032C7.06945 2.65188 7.03057 2.5534 6.99169 2.45382H6.81283C6.78839 2.48369 6.74506 2.53681 6.70729 2.58328V2.76917C6.85393 2.90527 7.03946 2.98604 7.22054 3.02699C7.42273 3.07235 7.61604 3.13321 7.81378 3.20403H8.24038C8.28038 3.183 8.32926 3.15645 8.39147 3.12325H8.8314C8.9225 3.05243 9.00915 3.01813 9.1258 3.07456C9.16246 3.16308 9.20357 3.26156 9.24689 3.36668C9.17801 3.47954 9.11913 3.58798 9.05026 3.68978C8.71031 4.17664 8.43813 4.70112 8.18039 5.23334C8.14595 5.30637 8.13373 5.39047 8.09818 5.4635C8.06263 5.53652 7.99375 5.5841 7.9682 5.67262C7.9171 5.8563 7.846 6.03445 7.77601 6.21259C7.70602 6.39295 7.68491 6.58438 7.62159 6.76474C7.59493 6.84219 7.54271 6.90637 7.54383 6.9971C7.54494 7.09226 7.54716 7.18853 7.48828 7.27926C7.42718 7.3711 7.4705 7.49171 7.41496 7.59904C7.34608 7.73071 7.36608 7.89558 7.29386 8.03168C7.3383 8.32822 7.18944 8.60042 7.19943 8.86487C7.155 8.93237 7.125 8.97552 7.09945 9.01425C7.04501 8.97441 7.0228 8.95892 7.0028 8.94343C6.96836 8.96003 6.93392 8.97663 6.90059 8.99212C6.86171 8.91134 6.82505 8.83721 6.79283 8.77414V8.06155C6.82172 8.01397 6.84393 7.97857 6.86949 7.93541C6.85282 7.63445 6.94392 7.34454 7.03835 7.05796C7.11389 6.82559 7.12167 6.56999 7.27387 6.36972C7.21054 6.22034 7.03946 6.18604 6.95281 6.05547C6.86171 5.91827 6.7495 5.79544 6.6373 5.65492C6.6173 5.66156 6.58064 5.67262 6.53732 5.6859V6.14399C6.51176 6.19268 6.48621 6.22809 6.47177 6.26571C6.37845 6.52463 6.26403 6.71163 6.11627 6.85879C6.00629 6.96944 5.87742 7.04247 5.72522 7.08009C5.66079 7.09669 5.60191 7.13209 5.53969 7.15976C5.52636 7.3379 5.40971 7.48175 5.43749 7.65326C5.4697 7.84136 5.34972 8.00402 5.35639 8.18106C5.36639 8.40789 5.30195 8.61702 5.23863 8.82725C5.08976 8.94343 5.02311 8.95782 4.95312 8.88811C4.92646 8.79848 4.89979 8.70996 4.88313 8.65353C4.9009 8.54288 4.9209 8.46321 4.92534 8.38244C4.9309 8.28285 4.94423 8.18991 5.01866 8.09254C5.01866 7.99627 5.012 7.88451 5.01977 7.77276C5.02866 7.66321 5.10976 7.57691 5.10532 7.45519C5.10087 7.35008 5.14753 7.24385 5.17308 7.13431C5.13198 7.06681 5.08754 6.996 4.97089 7.00042C4.86647 7.13209 4.75426 7.27041 4.64539 7.41204C4.5954 7.47622 4.55651 7.55257 4.49874 7.6101C4.27989 7.82587 4.13547 8.10471 3.89662 8.30277C3.87662 8.31826 3.84551 8.31826 3.79885 8.33265C3.72442 8.25298 3.59111 8.21314 3.58778 8.04717C3.68665 7.93984 3.80774 7.83804 3.89106 7.7119C3.97327 7.58687 4.09881 7.50609 4.17768 7.37552C4.25434 7.24828 4.37432 7.14648 4.53541 6.96833C4.57873 6.93293 4.75537 6.93182 4.82092 6.79683C4.75426 6.63306 4.69316 6.48479 4.63095 6.33431C4.52763 6.51578 4.47541 6.72933 4.25656 6.82006H3.80552C3.63221 6.71273 3.46779 6.60983 3.3156 6.51578C3.23116 6.38742 3.13118 6.2823 3.08341 6.15616C2.97787 5.87733 2.85122 5.60291 2.77901 5.3108C2.75791 5.22781 2.78346 5.1415 2.74124 5.0563C2.69903 4.97221 2.68569 4.87484 2.65681 4.77636C2.6657 4.49199 2.6357 4.19877 2.65792 3.94759C2.74457 3.81703 2.82678 3.7783 2.9601 3.81924C2.98898 3.85575 3.03675 3.90555 3.07119 3.96308C3.10674 4.02173 3.12896 4.08701 3.15118 4.13902C3.15118 4.23639 3.15007 4.32048 3.15118 4.40458C3.1534 4.57276 3.14784 4.74095 3.16118 4.90914C3.1734 5.05852 3.24116 5.19572 3.25227 5.35174C3.26449 5.50997 3.3667 5.65935 3.40003 5.81868C3.46113 6.12076 3.64221 6.30443 3.91995 6.40734C4.05326 6.42283 4.17102 6.40845 4.23101 6.26792C4.21657 6.24358 4.20101 6.22034 4.19435 6.20928C4.21546 6.13403 4.24989 6.06764 4.24767 6.00457C4.23767 5.56197 4.31655 5.11384 4.17991 4.67677C4.15546 4.59932 4.16769 4.50969 4.16991 4.4256C4.17213 4.33819 4.07548 4.26516 4.14213 4.16336C4.15769 4.13791 4.10103 4.0682 4.08325 4.0173C4.00438 3.78494 3.95883 3.53819 3.77775 3.35008C3.7322 3.30361 3.71109 3.23279 3.68332 3.1819C3.58333 3.131 3.49779 3.08784 3.40003 3.03916H2.8079C2.71347 3.10776 2.65237 3.17415 2.57682 3.20292C2.45573 3.24829 2.44573 3.41647 2.30353 3.42754C2.24021 3.51938 2.17577 3.6079 2.11689 3.70195C2.06579 3.78383 2.00247 3.86571 1.98136 3.95644C1.93026 4.18328 1.77695 4.37802 1.77028 4.61924C1.76917 4.65575 1.73473 4.69227 1.71918 4.72104C1.73362 4.98217 1.70363 5.2256 1.5992 5.45686C1.53921 5.48563 1.457 5.49558 1.47922 5.59517C1.5281 5.6339 1.5792 5.67373 1.63253 5.71688C1.60475 5.78549 1.5792 5.84745 1.55587 5.90499C1.58142 5.96142 1.60253 6.01121 1.62808 6.07318C1.58364 6.16612 1.5381 6.26349 1.48699 6.37304C1.5281 6.42726 1.57698 6.49254 1.64252 6.57774V7.27262C1.7114 7.35229 1.73473 7.45187 1.71473 7.54703C1.68918 7.67317 1.80694 7.75505 1.79583 7.86349C1.77473 8.07704 1.91581 8.26294 1.89248 8.47538C1.88915 8.5119 1.92137 8.54952 1.93248 8.58935C1.98469 8.77303 2.05357 8.95118 2.13245 9.0906C2.13911 9.20789 2.14245 9.29198 2.14467 9.33845C2.20799 9.48451 2.2802 9.59405 2.29909 9.71245C2.32908 9.90609 2.39352 10.0842 2.47239 10.2591C2.55794 10.4472 2.59904 10.653 2.7168 10.8267C2.8079 10.9617 2.88455 11.1066 2.95565 11.2295C2.88233 11.4585 2.80012 11.6621 2.81123 11.8911C2.81567 11.9996 2.83789 12.1169 2.7679 12.2176C2.73124 12.2685 2.72347 12.3171 2.77346 12.3614C2.9201 12.4057 3.04564 12.3072 3.17451 12.3028C3.33337 12.2972 3.45891 12.1822 3.61888 12.2054C3.75997 12.2264 3.89217 12.1822 4.0066 12.1202H4.59984C4.64761 12.0925 4.68427 12.0715 4.75648 12.0306H5.26862C5.39083 11.9409 5.53636 11.9465 5.67301 11.9564C5.83298 11.9697 5.96407 11.8613 6.11849 11.8757C6.28958 11.89 6.44289 11.8071 6.60619 11.7938C6.78839 11.7805 6.97169 11.7871 7.155 11.7838C7.18277 11.7838 7.21832 11.7871 7.2361 11.7716C7.34608 11.6798 7.47606 11.7141 7.59937 11.7053C7.66714 11.7008 7.74157 11.7163 7.77601 11.6621C7.83045 11.4297 7.74157 11.2394 7.68047 11.0602C7.50272 11.1586 7.32275 11.2593 7.14833 11.3556C7.00169 11.3589 6.86171 11.3844 6.71062 11.3479C6.7695 11.2339 6.84727 11.1686 6.94281 11.11C7.165 10.9728 7.39718 10.8411 7.59271 10.6707C7.81156 10.4804 8.03486 10.2867 8.18484 10.0256C8.26705 9.88285 8.37481 9.75118 8.48923 9.63167C8.76252 9.34841 8.92472 8.99654 9.11136 8.66128C9.17024 8.55505 9.16246 8.41563 9.27133 8.33265C9.31799 8.14565 9.45019 7.98521 9.47575 7.80042C9.50907 7.57027 9.62906 7.39102 9.73348 7.17082L9.73904 7.1675ZM7.91488 13.1526C8.07819 12.9268 8.37925 12.7597 8.48035 12.4389C8.39369 12.284 8.24149 12.2519 8.08818 12.1932C8.0293 12.2198 7.9682 12.2485 7.90821 12.2762C7.70269 12.3005 7.48606 12.2463 7.29386 12.3603C7.11167 12.3647 6.92614 12.3846 6.74617 12.368C6.54398 12.3481 6.37179 12.471 6.17293 12.4521C6.03295 12.4389 5.89186 12.4499 5.75188 12.4499C5.67634 12.4953 5.59857 12.5252 5.51747 12.5318C5.3775 12.5429 5.21974 12.4997 5.09976 12.5506C4.8798 12.6436 4.65983 12.6015 4.44098 12.6225C4.37099 12.6281 4.29989 12.6225 4.23879 12.6225C4.19324 12.6491 4.15658 12.6701 4.09325 12.7055H3.66221C3.57222 12.7487 3.52223 12.7719 3.48113 12.7918H3.05675C3.01009 12.8195 2.97454 12.8405 2.9401 12.8604C2.5946 12.908 2.24465 12.8272 1.91248 12.9235C1.86916 12.9069 1.83027 12.8925 1.79917 12.8815C1.71696 12.9213 1.64252 12.9567 1.57365 12.9899C1.48366 13.1603 1.66808 13.2721 1.65252 13.4325C1.92359 13.7047 2.19799 13.9813 2.44573 14.2325C2.4124 14.3852 2.38685 14.5036 2.36241 14.6209C2.32908 14.6519 2.29798 14.6795 2.25687 14.7182C2.14133 14.7216 2.00358 14.695 1.89248 14.7371C1.76028 14.7869 1.62586 14.799 1.50699 14.8178C1.39034 14.9241 1.27036 15.0026 1.20926 15.1553C1.25481 15.3003 1.28036 15.4618 1.36701 15.6057C1.38701 15.64 1.39367 15.6964 1.42367 15.7108C1.55809 15.7805 1.61919 15.9354 1.76473 15.9929C1.88026 16.0372 1.9858 16.1025 2.09912 16.1523C2.22466 16.2076 2.3513 16.2563 2.49683 16.316H4.18879C4.24101 16.285 4.27767 16.2629 4.3321 16.2308C4.43986 16.2308 4.58095 16.2673 4.68983 16.2242C4.94645 16.1202 5.22641 16.1113 5.48192 16.004C5.683 15.9199 5.89964 15.8768 6.10849 15.8126C6.38289 15.7296 6.63174 15.568 6.92614 15.5415C7.155 15.3855 7.44606 15.3534 7.6627 15.1719C7.826 15.1697 7.93265 15.0447 8.06819 14.9805C8.21594 14.9097 8.35814 14.8245 8.50812 14.7415C8.58255 14.5545 8.74697 14.4029 8.72364 14.1882C8.52367 13.9083 8.24372 13.7523 7.98598 13.5885C7.93265 13.4524 7.836 13.334 7.91488 13.1537V13.1526ZM10.9222 9.39267C10.8711 9.34399 10.8211 9.29641 10.7867 9.26321H10.4845C10.3889 9.32628 10.3067 9.37718 10.2267 9.4314C10.1279 9.49779 9.99789 9.52877 9.95234 9.65934C9.75904 9.7556 9.63905 9.91715 9.51796 10.092C9.39909 10.2624 9.2069 10.3819 9.09469 10.5556C9.01026 10.6862 8.88362 10.7813 8.81696 10.9152C8.66365 11.2228 8.47035 11.5061 8.29926 11.8015C8.30815 11.8447 8.31704 11.8834 8.33037 11.9443C8.50368 11.9443 8.64921 12.0151 8.77363 12.1246C8.80807 12.2187 8.83918 12.3072 8.87584 12.3957C8.91472 12.4909 8.91583 12.5893 8.87029 12.6768C8.82029 12.7741 8.77474 12.8759 8.6892 12.9534C8.58588 13.0463 8.49368 13.1514 8.37925 13.2698C8.43924 13.3196 8.4859 13.3794 8.54811 13.407C8.88362 13.5553 9.03137 13.8419 9.12802 14.1694C9.1358 14.1949 9.13691 14.2225 9.14024 14.2502C9.13358 14.2624 9.13024 14.2768 9.12136 14.2856C9.0347 14.3786 9.09581 14.5047 9.04581 14.6043C8.99804 14.7028 8.94027 14.7979 8.90361 14.9008C8.88806 14.944 8.91361 15.0026 8.91806 15.0336C8.98138 15.0624 9.01804 15.079 9.00915 15.0745C9.15135 15.2992 9.26022 15.4895 9.38909 15.6676C9.52129 15.8502 9.73459 15.9387 9.90124 16.0704H10.1923C10.3712 15.9653 10.3212 15.7628 10.4167 15.6477V14.9849C10.3512 14.8245 10.2856 14.6917 10.2356 14.5478C10.1801 14.383 10.1434 14.2037 10.0345 14.0577C9.95234 13.947 9.87013 13.8353 9.79681 13.7191C9.76126 13.6626 9.74793 13.5929 9.71015 13.4911C9.48686 13.2853 9.34799 12.9567 9.07248 12.7288V12.4156C9.13913 12.3448 9.21023 12.2917 9.25245 12.2209C9.3591 12.0383 9.48797 11.8801 9.67571 11.7761C9.69793 11.7639 9.71793 11.7407 9.73237 11.7196C9.90012 11.464 10.1423 11.2693 10.3089 11.0126C10.4356 10.8178 10.5867 10.6375 10.6789 10.4195C10.7478 10.2557 10.8378 10.1008 10.9222 9.93707V9.39267ZM6.11183 5.47567C6.06961 5.29973 6.03962 5.22117 6.03295 5.1415C6.02184 4.9877 6.03073 4.8339 6.01962 4.6812C6.01517 4.61592 5.97962 4.55285 5.94296 4.44109C5.94296 4.35036 5.93408 4.21094 5.94519 4.07152C5.9563 3.92878 5.86631 3.80485 5.86853 3.67207C5.87297 3.4729 5.82076 3.28812 5.76077 3.10776C5.70078 2.92629 5.62635 2.75257 5.59524 2.56004C5.57858 2.45714 5.51192 2.35866 5.45304 2.26793C5.39194 2.17609 5.31084 2.09531 5.26085 2.03667H4.82869C4.67427 2.11523 4.55096 2.17719 4.34877 2.2801C4.27211 2.36198 4.13991 2.50582 4.0066 2.64967C3.95883 2.69946 3.89884 2.74262 3.92883 2.84773C3.96438 2.88093 4.01549 2.92851 4.06881 2.97498C4.12103 3.02145 4.17324 3.06682 4.19435 3.08563C4.26878 3.23722 4.32988 3.34566 4.37654 3.45963C4.42653 3.58577 4.49208 3.71523 4.49763 3.8469C4.50319 3.96198 4.61095 4.0682 4.53318 4.18881C4.60317 4.25409 4.58095 4.34261 4.59651 4.42339C4.60984 4.50305 4.64428 4.5794 4.68538 4.70886V5.12048C4.90313 5.14704 4.93756 5.32408 5.01533 5.48563C5.01533 5.65271 5.02422 5.83417 5.01311 6.01453C5.002 6.20042 5.13976 6.35201 5.10087 6.53348C5.18308 6.60983 5.25196 6.67511 5.3275 6.74593C5.51747 6.65188 5.73633 6.64634 5.87853 6.50582C6.02517 6.33874 6.03184 6.13625 6.0785 5.95589C6.12182 5.78438 6.10627 5.59738 6.11405 5.47677L6.11183 5.47567ZM7.3583 5.81315C7.53494 5.57746 7.61604 5.31522 7.7038 5.05962C7.73824 4.95893 7.70824 4.83832 7.72269 4.72767C7.73602 4.62034 7.7849 4.51633 7.78934 4.41011C7.80045 4.18881 7.79268 3.96751 7.79268 3.73072C7.7338 3.69863 7.67825 3.65105 7.61604 3.63777C7.52161 3.61786 7.4194 3.63667 7.34052 3.56253C7.07501 3.52159 6.86282 3.36115 6.59064 3.24829C6.56509 3.21952 6.52509 3.16087 6.47066 3.11661C6.41622 3.07125 6.38956 2.98273 6.28513 2.97941C6.28513 3.07346 6.25403 3.17415 6.29069 3.2339C6.38734 3.38992 6.3229 3.56806 6.37956 3.71633C6.44733 3.89337 6.44177 4.06709 6.44844 4.24524C6.45288 4.38466 6.44844 4.52408 6.44844 4.66018C6.5662 4.79074 6.50843 4.95672 6.5462 5.09503C6.85282 5.27982 7.04279 5.58521 7.3583 5.81536V5.81315ZM6.67507 0.861568C6.31068 1.12159 5.94963 1.35728 5.76966 1.78992C5.96852 2.12076 6.1296 2.47927 6.24736 2.93736C6.26847 2.77249 6.26847 2.67623 6.29513 2.58881C6.31735 2.51136 6.36401 2.43943 6.40956 2.37083C6.46177 2.29227 6.52509 2.21813 6.58842 2.13515C6.72506 2.07429 6.83616 1.94926 7.00946 1.91385C7.16388 1.88287 7.30608 1.78992 7.48272 1.71025C7.43273 1.53432 7.33386 1.35728 7.37718 1.1559C7.2772 1.0541 7.18055 0.954514 7.09056 0.861568H6.67507ZM7.96043 1.55313C8.08374 1.64165 8.12929 1.56087 8.19483 1.53874C8.56256 1.51551 8.93694 1.54428 9.29466 1.51661C9.33577 1.46572 9.36243 1.43363 9.37909 1.41592C9.26911 1.06516 9.15469 0.726575 8.82696 0.51966H8.62255C8.547 0.56392 8.4759 0.60486 8.42258 0.635842C8.2315 0.937916 8.03264 1.21565 7.96043 1.55424V1.55313ZM7.98598 3.73514C7.97709 3.77055 7.96931 3.78383 7.97154 3.796C7.9982 3.9144 8.02486 4.03279 8.05486 4.15119C8.06041 4.17 8.08485 4.18438 8.10374 4.2043C8.25149 4.08369 8.27927 3.89559 8.38703 3.73072C8.25371 3.70527 8.13373 3.69863 7.98598 3.73514Z" fill="#613B3B"/>
</g>
<path d="M3.05775 13.7639C3.11663 13.7107 3.14774 13.682 3.19106 13.6421C3.30438 13.6377 3.43547 13.6067 3.55101 13.6344C3.66655 13.6621 3.75209 13.5116 3.86096 13.6078C3.97205 13.5403 4.09981 13.5348 4.21868 13.5503C4.34089 13.5669 4.42643 13.4751 4.53641 13.4728C4.56196 13.4872 4.58529 13.5016 4.62306 13.5226C4.66084 13.5049 4.70416 13.4762 4.75304 13.4662C4.87414 13.443 5.003 13.4917 5.11854 13.4098C5.22186 13.3367 5.37517 13.4297 5.47182 13.319C5.64846 13.2947 5.82288 13.2648 5.99618 13.2184C6.12616 13.184 6.27281 13.2117 6.40834 13.2117C6.45389 13.2604 6.49277 13.3013 6.52721 13.3401V13.4939C6.48833 13.5293 6.44611 13.5957 6.38723 13.6167C6.18171 13.6875 5.96397 13.7174 5.75511 13.7838C5.70067 13.8015 5.62624 13.7594 5.53848 13.7395C5.30962 13.8347 4.96301 13.8834 4.49531 13.8856C4.45976 13.9033 4.41087 13.9276 4.35644 13.9542C4.24312 13.9199 4.1287 13.8645 3.99983 13.8845C3.95872 13.8911 3.91651 13.8834 3.87318 13.8823C3.7332 13.88 3.59211 13.8889 3.45325 13.8712C3.33438 13.8557 3.21884 13.8092 3.05664 13.7639H3.05775Z" fill="#613B3B"/>
<path d="M4.89462 15.2507C4.93461 15.3303 4.95906 15.379 4.98572 15.4321C4.97683 15.4498 4.96905 15.4753 4.9535 15.493C4.77131 15.7077 4.51024 15.7796 4.25472 15.8028C3.89255 15.836 3.52372 15.8283 3.15934 15.8072C2.97048 15.7962 2.78606 15.7198 2.59387 15.7065C2.50055 15.6213 2.37946 15.6623 2.26281 15.6313C2.24726 15.6014 2.22948 15.5671 2.20393 15.5162C2.17171 15.4985 2.12505 15.4731 2.07617 15.4476C2.09395 15.4321 2.11172 15.4034 2.1295 15.4034C2.31169 15.4 2.495 15.4012 2.6683 15.4012C2.7905 15.4897 2.90604 15.5118 3.0238 15.4189C3.06046 15.4366 3.09712 15.4554 3.13823 15.4753C3.25043 15.4321 3.36597 15.3956 3.49484 15.4023C3.63482 15.41 3.77591 15.3989 3.91588 15.3967C4.00032 15.3945 4.10141 15.4222 4.16585 15.3857C4.30471 15.3071 4.47024 15.348 4.60133 15.2662C4.69354 15.2086 4.78797 15.2285 4.89462 15.2507Z" fill="#613B3B"/>
<path d="M6.19531 14.6818C6.42083 14.4737 6.71079 14.4173 6.97186 14.3022C7.22182 14.1927 7.47289 14.0843 7.73174 13.9714C7.75063 13.9714 7.78062 13.9648 7.80506 13.9725C7.91727 14.0101 7.97837 14.1031 8.04169 14.1916C8.04836 14.2746 7.99948 14.331 7.93837 14.3598C7.69286 14.4793 7.42734 14.5468 7.16738 14.6298C7.12406 14.643 7.06407 14.6043 6.98297 14.5822C6.95519 14.6054 6.90631 14.6475 6.83855 14.705C6.80522 14.7094 6.75078 14.7128 6.69746 14.7227C6.64413 14.7327 6.58303 14.7349 6.5397 14.7625C6.4786 14.8046 6.44305 14.7482 6.39639 14.7437C6.37195 14.7581 6.34862 14.7725 6.3164 14.7935C6.27863 14.7592 6.23864 14.7216 6.19531 14.6818Z" fill="#613B3B"/>
<path d="M9.24414 13.9898V13.7619C9.30524 13.6888 9.37412 13.711 9.46855 13.7276C9.57964 13.9112 9.72295 14.0993 9.81294 14.3118C9.90293 14.5231 9.9607 14.75 10.074 14.9602C10.074 15.0797 10.074 15.2058 10.0729 15.3309C10.0729 15.343 10.0596 15.3541 10.0529 15.3652C9.97736 15.4205 9.89515 15.3984 9.79183 15.3895C9.75406 15.3176 9.69296 15.239 9.66963 15.1505C9.49521 14.4767 9.49743 14.4755 9.24414 13.9898Z" fill="#613B3B"/>
<path d="M10.1201 10.1895H10.3823C10.3923 10.2415 10.4223 10.2979 10.4079 10.341C10.379 10.4307 10.3445 10.528 10.2823 10.5955C10.1135 10.777 9.94015 10.9552 9.80017 11.1621C9.7924 11.1731 9.7824 11.1853 9.77129 11.1908C9.62909 11.2583 9.56465 11.4022 9.45245 11.5139H9.20804C9.13916 11.4719 9.15139 11.4 9.15361 11.338C9.47578 10.9552 9.79462 10.5767 10.1201 10.1895Z" fill="#613B3B"/>
<path d="M21.3194 17.0034C21.4438 18.485 21.0128 19.8029 20.0263 20.9558C19.6197 21.4549 19.222 21.8056 18.8309 22.0092C15.7136 23.7088 12.7474 24.0828 9.93007 23.1334C9.34905 22.9298 8.76136 22.5791 8.1659 22.08C7.65042 21.6585 7.49489 21.0654 7.6993 20.3008C7.82373 19.8029 7.89261 19.2806 7.90816 18.734C7.92593 17.7669 7.94149 16.8032 7.95704 15.8438C7.97148 14.8856 7.98592 13.9307 8.00148 12.9802C8.01925 12.2167 8.03036 11.4488 8.03703 10.6787C8.04592 9.90635 8.05702 9.13733 8.07258 8.37274V8.27979C8.09035 8.10939 8.07813 7.92571 8.03703 7.73097C7.99814 7.53401 7.83817 7.34923 7.5571 7.17772C7.39935 7.08699 7.30603 6.95532 7.27715 6.78381C7.25937 6.58021 7.32825 6.40096 7.486 6.24384L7.6993 6.03139C7.96593 5.78353 8.24255 5.53125 8.53028 5.27454C8.82024 5.01562 9.12241 4.84744 9.43681 4.76998C11.2521 4.30083 13.014 4.03527 14.7204 3.9733C14.8149 3.95892 14.9171 3.95117 15.027 3.95117C17.1089 3.95117 18.5876 4.87178 19.4619 6.71299C20.2618 8.3661 20.0196 9.86209 18.7376 11.201C18.672 11.2662 18.6009 11.3293 18.5243 11.3913C18.4465 11.4532 18.361 11.5152 18.2665 11.5772C18.2188 11.6104 18.171 11.6458 18.1243 11.6834C18.0766 11.7221 18.031 11.7575 17.9866 11.7896L17.7022 11.9976L17.9866 12.1835C18.0777 12.2632 18.1666 12.334 18.2532 12.396C18.3388 12.4579 18.4221 12.5199 18.5021 12.5819C18.6587 12.7058 18.802 12.8198 18.9331 12.9227C19.0664 13.0234 19.1964 13.1285 19.3242 13.2369C20.5117 14.235 21.1772 15.4897 21.3194 17.0034ZM11.4098 10.6654V10.9708L11.712 10.9C11.8687 10.8679 12.0142 10.8325 12.1475 10.7938C12.2808 10.7561 12.4186 10.7207 12.5608 10.6875C12.8718 10.6256 13.1751 10.557 13.4717 10.4795C13.7706 10.3998 14.0605 10.3058 14.3427 10.1962C14.7982 10.0258 15.127 9.85434 15.3292 9.68283C15.5336 9.51243 15.6903 9.36306 15.8003 9.23581L15.9158 9.07205C16.0102 8.90165 16.1002 8.7069 16.1869 8.48782C16.2724 8.26984 16.2769 8.04411 16.2002 7.81064C16.1202 7.57827 15.9391 7.39017 15.6581 7.24854C15.3614 7.11023 14.9315 7.00068 14.3694 6.92101C14.1027 6.90663 13.8428 6.90331 13.5917 6.91216C13.3429 6.9188 13.0451 6.96085 12.6985 7.04052C12.3541 7.11797 11.9164 7.24854 11.3832 7.43443L11.1965 7.50525V7.69556C11.211 8.03858 11.2299 8.32295 11.2543 8.54978C11.2776 8.7744 11.2987 8.98795 11.3165 9.19155C11.331 9.39514 11.3454 9.60649 11.361 9.82447C11.3754 10.0436 11.3921 10.3235 11.4098 10.6654ZM17.7244 17.5168C17.8333 16.7534 17.5444 16.0518 16.8579 15.4145C16.4191 14.9929 15.9525 14.7041 15.4581 14.547C14.9659 14.391 14.4694 14.3124 13.9694 14.3124C13.4684 14.3124 12.9674 14.3368 12.4674 14.3832L11.9964 14.4054C11.8387 14.4231 11.7131 14.5271 11.6187 14.7152C11.5265 14.9011 11.472 15.0494 11.4543 15.1578C11.4543 15.3913 11.4543 15.6292 11.4543 15.8704C11.4543 16.1127 11.4543 16.3506 11.4543 16.583V17.0964L11.4809 17.3531C11.4809 17.415 11.4809 17.4704 11.4809 17.5168C11.4809 17.5644 11.4809 17.612 11.4809 17.6585C11.4809 17.8776 11.4809 18.0922 11.4809 18.3047C11.4809 18.5149 11.472 18.7285 11.4543 18.9464C11.4243 19.555 11.722 19.8892 12.3475 19.9511C12.5519 19.9666 12.7474 19.9733 12.934 19.9733C14.1094 19.9733 15.2848 19.6856 16.4579 19.1102C17.1923 18.7506 17.6144 18.2195 17.7244 17.5168Z" fill="#D97C50"/>
<path d="M26.4361 8.6965C26.545 10.2257 26.6549 11.7538 26.7649 13.2818C26.8738 14.811 26.9604 16.3391 27.0227 17.8672C27.0404 18.3662 27.0093 18.8741 26.9293 19.3897C26.8516 19.9031 26.7516 20.4099 26.6272 20.9078C26.5172 21.3593 26.3006 21.699 25.9784 21.9258C25.6584 22.1504 25.3174 22.2622 24.9563 22.2622C24.583 22.2478 24.2509 22.1161 23.9609 21.8683C23.6699 21.6182 23.4632 21.2663 23.3388 20.8149C23.2588 20.5316 23.1988 20.2472 23.161 19.9607C23.1222 19.6719 23.0955 19.3786 23.0811 19.0799C23.0811 18.8176 23.0833 18.343 23.0899 17.6547C23.0988 16.9676 23.1144 16.1764 23.1388 15.2824C23.1622 14.3861 23.1888 13.4699 23.2188 12.5338C23.251 11.5988 23.2866 10.7302 23.3255 9.92693C23.3632 9.1214 23.4066 8.49291 23.4543 8.04146C23.4688 7.83786 23.4999 7.63205 23.5476 7.42182C23.5943 7.21269 23.6732 7.03675 23.7832 6.89512C23.9254 6.72472 24.1053 6.55322 24.3253 6.38171C24.5442 6.21131 24.7475 6.125 24.9341 6.125C25.1385 6.14049 25.3574 6.23012 25.5918 6.39499C25.8251 6.55764 25.9895 6.73136 26.085 6.91725C26.2095 7.18281 26.295 7.47272 26.3428 7.78475C26.3894 8.09457 26.4205 8.39885 26.4361 8.6965Z" fill="#D97C50"/>
<path d="M36.1821 12.6541C36.8843 12.7637 37.493 13.0171 38.0085 13.4154C38.5262 13.8137 38.9106 14.3095 39.1595 14.9025C39.4105 15.4934 39.4816 16.1396 39.3728 16.8411C39.2628 17.6821 39.0395 18.4655 38.7017 19.1913C38.3662 19.9172 37.8941 20.5767 37.2842 21.1697C36.2821 22.1346 35.069 22.6104 33.6448 22.5949C33.1582 22.4865 32.6682 22.3891 32.1739 22.3028C31.6817 22.2176 31.2007 22.097 30.7297 21.9399C29.8076 21.6123 29.1355 21.0901 28.7122 20.3731C28.2878 19.6561 28.1478 18.814 28.29 17.8458C28.4611 16.7106 28.8477 15.7169 29.4499 14.8671C30.0542 14.0151 30.8496 13.2937 31.8362 12.7028C32.6805 12.2016 33.5881 12.0832 34.5602 12.3487C34.8268 12.4284 35.0956 12.4926 35.3689 12.5391C35.6444 12.5833 35.9155 12.622 36.1821 12.6541ZM35.4978 17.1686C35.6867 16.6088 35.5467 16.1639 35.0756 15.8364C34.6368 15.5244 34.3002 15.3252 34.0669 15.2389C33.8325 15.1537 33.6203 15.1935 33.4315 15.3584C33.2448 15.5211 33.0015 15.8209 32.7027 16.2569C32.6105 16.3985 32.5338 16.5158 32.4716 16.6065C32.015 17.4032 31.8728 17.9609 32.045 18.2796C32.2194 18.5982 32.7605 18.7819 33.667 18.8284C34.138 18.8461 34.5024 18.7343 34.7601 18.492C35.0179 18.2508 35.2634 17.8093 35.4978 17.1686Z" fill="#D97C50"/>
<path d="M48.2788 12.6541C48.9809 12.7637 49.5897 13.0171 50.1052 13.4154C50.6229 13.8137 51.0073 14.3095 51.2561 14.9025C51.5072 15.4934 51.5783 16.1396 51.4694 16.8411C51.3595 17.6821 51.1362 18.4655 50.7984 19.1913C50.4629 19.9172 49.9908 20.5767 49.3809 21.1697C48.3788 22.1346 47.1657 22.6104 45.7414 22.5949C45.2548 22.4865 44.7649 22.3891 44.2706 22.3028C43.7784 22.2176 43.2974 22.097 42.8263 21.9399C41.9043 21.6123 41.2321 21.0901 40.8089 20.3731C40.3845 19.6561 40.2445 18.814 40.3867 17.8458C40.5578 16.7106 40.9444 15.7169 41.5465 14.8671C42.1509 14.0151 42.9463 13.2937 43.9328 12.7028C44.7771 12.2016 45.6848 12.0832 46.6569 12.3487C46.9235 12.4284 47.1923 12.4926 47.4656 12.5391C47.7411 12.5833 48.0122 12.622 48.2788 12.6541ZM47.5945 17.1686C47.7833 16.6088 47.6434 16.1639 47.1723 15.8364C46.7335 15.5244 46.3969 15.3252 46.1636 15.2389C45.9292 15.1537 45.717 15.1935 45.5281 15.3584C45.3415 15.5211 45.0982 15.8209 44.7994 16.2569C44.7072 16.3985 44.6305 16.5158 44.5683 16.6065C44.1117 17.4032 43.9695 17.9609 44.1417 18.2796C44.3161 18.5982 44.8571 18.7819 45.7637 18.8284C46.2347 18.8461 46.5991 18.7343 46.8568 18.492C47.1146 18.2508 47.3601 17.8093 47.5945 17.1686Z" fill="#D97C50"/>
<path d="M70.3766 18.4559C70.4088 18.7657 70.4277 19.0822 70.4344 19.4031C70.4433 19.7218 70.431 20.0382 70.3988 20.3502C70.3366 20.8493 70.1677 21.2664 69.8922 21.6028C69.6189 21.937 69.2879 22.1339 68.8968 22.1959C68.3958 22.291 67.957 22.2379 67.5815 22.0365C67.2049 21.833 66.9305 21.5276 66.7594 21.1204C66.555 20.607 66.3972 20.0703 66.2883 19.5093C66.1784 18.9461 66.0684 18.384 65.9595 17.823C65.8973 17.5729 65.8617 17.3162 65.8529 17.0529C65.8462 16.7873 65.8273 16.5295 65.7951 16.2783C65.7506 16.2639 65.6807 16.2496 65.5862 16.2341C65.2418 16.6855 64.9441 17.158 64.693 17.6504C64.4409 18.1406 64.2931 18.6816 64.2487 19.2747C64.2309 19.4938 64.222 19.7162 64.222 19.9431C64.222 20.1677 64.2064 20.389 64.1776 20.607C64.0976 21.2 63.8687 21.6681 63.4932 22.01C63.1199 22.353 62.6734 22.5168 62.1557 22.5013C61.6402 22.4869 61.2014 22.2888 60.8403 21.9082C60.4815 21.5253 60.2937 21.0296 60.2759 20.4211C60.2759 19.9851 60.2948 19.548 60.3337 19.111C60.3748 18.675 60.3882 18.2379 60.3737 17.8009C60.3737 17.3317 60.357 16.8714 60.3248 16.42C60.2915 15.9685 60.2682 15.516 60.2537 15.0612C60.1915 15.0468 60.1315 15.028 60.076 15.0036C60.0227 14.9804 59.9649 14.9616 59.9027 14.9461C59.7127 15.1796 59.5083 15.4097 59.2894 15.6366C59.0728 15.8645 58.9095 16.109 58.8006 16.3713C58.534 16.9644 58.2907 17.5619 58.0718 18.1638C57.8519 18.7635 57.633 19.3588 57.4142 19.9519C57.352 20.1234 57.2964 20.2993 57.2498 20.4786C57.202 20.659 57.1387 20.8349 57.0587 21.0053C56.6521 21.9702 55.9722 22.4305 55.019 22.3862C54.5946 22.3685 54.2147 22.2291 53.8769 21.9657C53.5414 21.7002 53.3037 21.3406 53.1615 20.8858C53.0993 20.7154 53.0437 20.5361 52.9971 20.3502C52.9493 20.1621 52.9349 19.9818 52.9526 19.8103C53.2159 17.6272 53.5126 15.4219 53.8414 13.1934C53.8592 13.0053 53.9058 12.8172 53.9836 12.6313C54.0636 12.4432 54.1725 12.2938 54.3124 12.1843C54.4835 12.046 54.6913 11.9099 54.9346 11.7771C55.1767 11.6443 55.3923 11.5945 55.5789 11.6266C55.7833 11.6565 55.9788 11.7682 56.1655 11.963C56.3543 12.1577 56.5121 12.3503 56.6365 12.5384C56.7454 12.6922 56.812 12.8703 56.8365 13.0739C56.8598 13.2775 56.8954 13.4811 56.9431 13.6847C57.7719 13.1071 58.4562 12.6734 58.9961 12.3835C59.5383 12.0947 60.0071 11.9541 60.4048 11.963C60.8048 11.9718 61.2069 12.1356 61.6135 12.4543C62.0223 12.7729 62.5 13.2454 63.0488 13.8706C63.1577 13.729 63.2555 13.5851 63.3421 13.4368C63.4277 13.2897 63.5343 13.1613 63.6621 13.0518C64.2398 12.4919 64.8575 12.1422 65.5151 12.0028C66.1728 11.8612 66.8105 11.9309 67.4304 12.2108C68.0492 12.4919 68.5858 12.9743 69.039 13.6581C69.5245 14.3752 69.8411 15.1442 69.99 15.9641C70.1377 16.7818 70.2666 17.6128 70.3766 18.4559Z" fill="#D97C50"/>
<path d="M60.681 32.5491C60.701 32.88 60.7077 33.2153 60.6988 33.5538C60.6921 33.8902 60.6655 34.2244 60.6188 34.5541C60.5322 35.0764 60.3366 35.5079 60.0322 35.8465C59.7301 36.1862 59.3701 36.3798 58.9524 36.4263C58.4214 36.506 57.9626 36.4307 57.5748 36.2006C57.186 35.9682 56.9127 35.6363 56.7527 35.2047C56.5572 34.6537 56.4128 34.0783 56.3217 33.4786C56.2328 32.88 56.144 32.2825 56.0551 31.6861C56.0018 31.4205 55.9762 31.1494 55.9795 30.8717C55.9818 30.5918 55.9729 30.3184 55.9529 30.0529C55.9018 30.0352 55.8284 30.0164 55.7307 29.9953C55.3452 30.4557 55.0086 30.9403 54.722 31.4471C54.4376 31.9516 54.2565 32.5171 54.1798 33.1422C54.1532 33.3702 54.1332 33.6025 54.122 33.8415C54.1132 34.0805 54.0876 34.3151 54.0465 34.5453C53.9365 35.1649 53.6754 35.6473 53.2644 35.9926C52.8556 36.3356 52.3801 36.4883 51.838 36.4529C51.2892 36.4119 50.8337 36.1829 50.4693 35.7668C50.1071 35.3486 49.9327 34.8175 49.9449 34.1735C49.9627 33.7132 50.0027 33.2551 50.0649 32.797C50.1271 32.3367 50.1593 31.8764 50.1627 31.4161C50.1827 30.9204 50.186 30.4357 50.1716 29.9599C50.1593 29.4819 50.156 29.0028 50.1627 28.5215C50.0938 28.5038 50.0316 28.4817 49.976 28.4551C49.9194 28.4285 49.8583 28.4053 49.7938 28.3843C49.5828 28.6233 49.3583 28.8579 49.1184 29.088C48.8806 29.316 48.6984 29.5682 48.5718 29.8449C48.263 30.4534 47.9786 31.0698 47.7186 31.6949C47.4609 32.3179 47.2031 32.9375 46.9454 33.5538C46.8743 33.7309 46.8087 33.9124 46.7499 34.0982C46.6899 34.2841 46.6165 34.4678 46.5277 34.6471C46.0533 35.6473 45.3145 36.1021 44.3102 36.0103C43.8659 35.9727 43.4715 35.8067 43.1282 35.5146C42.7871 35.2202 42.5527 34.8319 42.4261 34.3505C42.3639 34.168 42.3117 33.9776 42.2706 33.7796C42.2317 33.5793 42.2239 33.3879 42.2483 33.2042C42.6272 30.9182 43.0404 28.6045 43.4881 26.2642C43.5148 26.0673 43.5726 25.8703 43.6615 25.6756C43.7526 25.4808 43.8759 25.3304 44.0303 25.2241C44.2136 25.0858 44.4358 24.9519 44.6968 24.8214C44.9601 24.6919 45.1912 24.6476 45.3901 24.6886C45.6 24.7328 45.8 24.8612 45.99 25.0736C46.1788 25.2861 46.3366 25.4941 46.461 25.6977C46.5699 25.8692 46.6321 26.0629 46.6477 26.2775C46.6654 26.49 46.6932 26.7046 46.7321 26.9193C47.6353 26.3505 48.3774 25.9268 48.9584 25.649C49.5383 25.3691 50.0393 25.2418 50.4604 25.2684C50.8803 25.2927 51.298 25.4808 51.7135 25.8349C52.1279 26.189 52.6112 26.7068 53.1622 27.3884C53.2833 27.2468 53.3933 27.1007 53.491 26.9503C53.5888 26.7976 53.7043 26.6659 53.8376 26.5564C54.4775 25.9876 55.1463 25.6435 55.8462 25.5251C56.545 25.4078 57.2127 25.5107 57.8504 25.8349C58.4903 26.1569 59.0346 26.6913 59.4857 27.4371C59.9622 28.2139 60.26 29.0371 60.3788 29.9068C60.4999 30.7776 60.601 31.6584 60.681 32.5491Z" fill="#FCC0C5"/>
<path d="M71.7984 26.5525C72.3994 27.2197 72.7338 27.9312 72.8026 28.6858C72.8704 29.4382 72.6927 30.122 72.2694 30.735C71.845 31.3491 71.204 31.7873 70.3452 32.0495C69.6609 32.2531 68.9477 32.3848 68.2078 32.4435C67.4701 32.5032 66.7103 32.5884 65.9282 32.7002C66.1559 32.7776 66.3748 32.8584 66.5858 32.9436C66.7991 33.0266 67.0135 33.0885 67.2302 33.1295C67.6534 33.2302 68.0812 33.311 68.5144 33.3729C68.9499 33.4327 69.3721 33.5356 69.7809 33.6827C70.3697 33.904 70.7152 34.2526 70.8163 34.7273C70.9196 35.2031 70.7407 35.6512 70.2786 36.0728C70.0353 36.3096 69.7365 36.5154 69.381 36.6924C69.0255 36.8672 68.6811 36.9624 68.35 36.9801C66.8269 37.0664 65.5571 36.8197 64.5417 36.241C63.5252 35.6634 62.7886 34.8711 62.3332 33.8642C61.8799 32.8551 61.7288 31.7441 61.8799 30.5314C61.9777 29.779 62.1399 29.0576 62.3687 28.3671C62.5965 27.6767 62.9397 27.0194 63.3997 26.3931C63.9774 25.5821 64.7028 25.01 65.5771 24.6758C66.4503 24.3395 67.379 24.2908 68.3633 24.5298C69.7553 24.8374 70.9007 25.5112 71.7984 26.5525ZM69.5187 28.8274C69.5509 28.8307 69.5876 28.8208 69.6298 28.7964C69.6742 28.7732 69.7287 28.7466 69.7942 28.7168C69.4976 28.2598 69.1188 27.9267 68.6566 27.7165C68.1967 27.5074 67.759 27.4509 67.3413 27.5483C66.9591 27.6457 66.6703 27.8271 66.4747 28.0927C66.2814 28.3583 66.1281 28.6791 66.0126 29.0531C66.6258 29.0122 67.2213 28.9757 67.799 28.9425C68.3789 28.9071 68.9521 28.8695 69.5187 28.8274Z" fill="#FCC0C5"/>
</svg>
