<svg width="210" height="146" viewBox="0 0 210 146" fill="none" xmlns="http://www.w3.org/2000/svg">
<path d="M133.124 66.2959C131.753 63.6617 117.449 64.7178 116.808 63.0862C116.161 61.4546 109.214 43.638 106.58 43.3117C103.946 42.9854 91.1363 62.4098 92.3644 61.0809C93.5866 59.7578 74.2808 60.1613 72.6136 63.9228C70.9464 67.6842 81.9046 77.883 83.109 80.9503C84.0345 83.3116 76.4581 98.5949 79.2763 100.582C82.0885 102.57 100.237 93.2553 102.878 93.7655C105.524 94.2757 120.38 105.792 124.515 104.13C128.656 102.475 122.907 85.9755 123.613 82.2496C124.313 78.5297 134.5 68.9302 133.124 66.2959Z" fill="#EB9AED"/>
<path d="M94.3766 72.2694C93.1188 71.1659 91.0304 72.75 90.8405 74.4587C90.7041 75.6749 91.3804 77.1582 92.6975 77.3896C94.5071 77.704 95.5572 75.0757 95.0826 73.4857C94.9105 72.922 94.6673 72.5245 94.3766 72.2694Z" fill="#FFDD8F"/>
<path d="M115.984 72.2694C114.726 71.1659 112.644 72.75 112.448 74.4587C112.311 75.6749 112.988 77.1582 114.305 77.3896C116.115 77.704 117.165 75.0757 116.69 73.4857C116.524 72.922 116.275 72.5245 115.984 72.2694Z" fill="#FFDD8F"/>
<path d="M99.122 81.9338C101.982 80.2725 105.666 80.5633 108.686 81.6846C109.606 82.0287 109.997 80.5573 109.089 80.2191C105.684 78.9554 101.56 78.7596 98.3567 80.6226C97.5083 81.115 98.2736 82.4321 99.122 81.9338Z" fill="#FFDD8F"/>
<path d="M60.7663 63.7442C59.3958 61.11 45.0915 62.172 44.4507 60.5405C43.804 58.9089 36.8506 41.0922 34.2223 40.7659C31.5881 40.4337 18.7788 59.8582 20.007 58.5351C21.2292 57.2061 1.92334 57.6096 0.256177 61.3711C-1.41098 65.1326 9.54718 75.3372 10.7516 78.4046C11.6771 80.7599 4.10073 96.0492 6.91295 98.0308C9.7311 100.018 27.88 90.7036 30.5201 91.2197C33.1662 91.73 48.0164 103.24 52.1576 101.585C56.2988 99.9234 50.5498 83.4238 51.2558 79.7039C51.9559 75.978 62.1428 66.3844 60.7663 63.7442Z" fill="#FFDD8F"/>
<path d="M22.0172 69.7243C20.7535 68.6208 18.671 70.199 18.4812 71.9076C18.3447 73.1298 19.0211 74.6131 20.3382 74.8385C22.1477 75.153 23.1978 72.5247 22.7232 70.9406C22.5512 70.371 22.3079 69.9735 22.0172 69.7243Z" fill="#9896E6"/>
<path d="M43.6256 69.7243C42.3678 68.6208 40.2853 70.199 40.0896 71.9076C39.9531 73.1298 40.6294 74.6131 41.9466 74.8385C43.7561 75.153 44.8062 72.5247 44.3316 70.9406C44.1655 70.371 43.9163 69.9735 43.6256 69.7243Z" fill="#9896E6"/>
<path d="M25.726 79.1167C28.5501 82.9434 34.1864 82.5637 37.0639 78.9446C37.6691 78.1852 36.6071 77.0995 35.996 77.8648C33.8008 80.6236 29.3273 81.4542 27.0372 78.3513C26.4617 77.5682 25.1446 78.3276 25.726 79.1167Z" fill="#9896E6"/>
<path d="M209.872 66.0635C208.501 63.4233 194.197 64.4853 193.556 62.8538C192.909 61.2222 185.956 43.4056 183.328 43.0793C180.694 42.753 167.884 62.1715 169.112 60.8484C170.335 59.5195 151.029 59.9229 149.362 63.6844C147.694 67.4459 158.653 77.6506 159.857 80.7179C160.783 83.0733 153.206 98.3625 156.018 100.344C158.837 102.332 176.985 93.0169 179.626 93.5331C182.272 94.0433 197.122 105.553 201.263 103.898C205.404 102.237 199.655 85.7372 200.361 82.0172C201.061 78.2913 211.248 68.6977 209.872 66.0635Z" fill="#75DDE6"/>
<path d="M176.025 81.5846C177.389 80.309 178.891 78.4401 180.736 77.8706C182.385 77.3603 184.266 80.2438 185.102 81.2583C185.725 82.0118 186.793 80.932 186.17 80.1785C184.859 78.5825 183.168 76.1975 180.825 76.3221C178.564 76.4407 176.446 79.1106 174.951 80.5107C174.233 81.1812 175.307 82.255 176.025 81.5846Z" fill="#9896E6"/>
<path d="M168.342 69.867C169.772 71.5282 171.546 72.8038 173.806 72.875C174.785 72.9106 174.779 71.3858 173.806 71.3562C171.949 71.2968 170.573 70.134 169.416 68.7872C168.775 68.0456 167.707 69.1254 168.342 69.867Z" fill="#9896E6"/>
<path d="M193.088 68.7872C191.931 70.134 190.549 71.2968 188.692 71.3562C187.719 71.3858 187.713 72.9106 188.692 72.875C190.952 72.8038 192.726 71.5282 194.162 69.867C194.797 69.1254 193.729 68.0456 193.088 68.7872Z" fill="#9896E6"/>
<path d="M0.534601 6.50882C0.67106 6.37829 0.872779 6.2893 1.1279 6.25963C1.5076 6.2003 1.82798 6.26557 2.10683 6.44355C2.37975 6.62154 2.57554 6.87073 2.69419 7.17924C2.83065 7.54708 2.83065 7.91493 2.69419 8.28277C2.55774 8.64468 2.28482 8.89979 1.88138 9.05405C1.51947 9.19051 1.15756 9.15491 0.81345 8.94726C0.481205 8.78114 0.243887 8.51415 0.107429 8.14631C-0.123956 7.52335 0.0184344 6.97752 0.534601 6.50882ZM1.78052 10.7212C1.86952 10.6263 1.97037 10.5551 2.0831 10.5195C2.1543 10.4898 2.24922 10.4661 2.37382 10.4542C2.49247 10.4424 2.58147 10.4246 2.63487 10.4068C2.72386 10.3712 2.94338 10.5076 3.28749 10.8221C3.6494 11.1247 4.04098 11.6527 4.45628 12.4062C4.87159 13.1656 5.6844 14.8149 6.89472 17.3542C6.97778 17.5085 7.06678 17.728 7.16764 18.0009C7.6838 19.4011 7.47022 20.2792 6.51501 20.6352C5.83866 20.8844 5.27503 20.7657 4.83599 20.2733C4.39102 19.7749 3.76212 18.5942 2.94338 16.7254C2.534 15.788 2.17803 14.9158 1.87545 14.1089C1.70933 13.6462 1.6144 13.3673 1.5966 13.2724C1.47201 12.7503 1.42454 12.24 1.46607 11.7357C1.51354 11.2255 1.6144 10.8873 1.78052 10.7212Z" fill="#75DDE6"/>
<path d="M13.0116 2.02295C13.1659 1.95176 13.3379 1.91023 13.5337 1.89243C13.9016 1.8687 14.216 1.93396 14.4593 2.09415C14.7084 2.27214 14.9161 2.8061 15.0763 3.70198C15.2246 4.66905 15.3077 5.21488 15.3136 5.33354C15.3492 5.52932 15.6993 5.60052 16.3578 5.55306C18.019 5.47 18.8793 5.8675 18.9446 6.74558C18.9624 6.94137 18.9327 7.13122 18.8674 7.31514C18.6954 7.85504 17.9656 8.17542 16.6782 8.27035L15.7704 8.33561L16.0018 9.49847C16.2332 10.8037 16.5417 11.9962 16.9274 13.0938C17.313 14.1855 17.6512 14.8856 17.9478 15.2C18.1377 15.3602 18.3691 15.4314 18.642 15.4136C18.6776 15.4077 18.8912 15.3721 19.2768 15.3068C19.4548 15.2772 19.6684 15.2475 19.9176 15.2297C20.1905 15.2119 20.4575 15.3068 20.7067 15.5263C20.9558 15.7459 21.0923 15.9594 21.1042 16.173C21.116 16.3095 21.116 16.44 21.1042 16.5587C21.0567 17.2528 20.8194 17.7987 20.3863 18.2021C19.9591 18.6115 19.4192 18.8369 18.7785 18.8844C18.0724 18.9378 17.3605 18.7776 16.6367 18.4038C15.9188 18.036 15.3017 17.4902 14.7974 16.7604C14.3169 16.0484 13.8778 15.028 13.4863 13.699C13.0947 12.37 12.8514 11.0707 12.7624 9.80105L12.6616 8.41867L12.0742 8.4602C10.5732 8.55513 9.77223 8.16949 9.66544 7.31514C9.64764 7.0185 9.73071 6.80491 9.91463 6.67438C10.1045 6.54386 10.5317 6.4074 11.208 6.25315C12.0149 6.05736 12.4302 5.95056 12.448 5.92683L12.5073 4.33087C12.5014 2.95443 12.6734 2.18314 13.0116 2.02295Z" fill="#75DDE6"/>
<path d="M28.4424 5.01439C28.8696 4.68807 29.2375 4.55162 29.546 4.60501C29.9731 4.67621 30.1333 5.03812 30.0206 5.69668C29.9613 6.08232 29.546 6.80614 28.7747 7.87407C28.0271 8.942 27.5347 9.73701 27.3152 10.2591C26.9711 11.0363 26.5617 11.3864 26.0989 11.3092C26.004 11.2914 25.9269 11.2736 25.8735 11.244C25.6718 11.1491 25.5531 10.9533 25.5294 10.6507C25.5175 10.449 25.5234 10.2888 25.5472 10.1761C25.6718 9.39884 26.0515 8.44956 26.6804 7.3223C27.3152 6.18911 27.8966 5.42376 28.4424 5.01439Z" fill="#75DDE6"/>
<path d="M37.562 9.11292C37.8646 9.11886 38.2206 9.17819 38.6359 9.29684C39.2173 9.45703 39.7632 9.72402 40.2734 10.0919C40.7599 10.4538 41.1455 10.9937 41.4303 11.7175C41.7151 12.4413 41.7922 13.0465 41.6498 13.5389C41.6202 13.6516 41.5846 13.7347 41.5549 13.7822C41.3176 14.1856 40.9854 14.328 40.5522 14.2034C40.2319 14.1144 40.0717 13.9186 40.0776 13.616C40.0598 13.3846 39.9293 13.0939 39.6801 12.738C39.4665 12.4354 39.2411 12.2455 39.0156 12.1862C38.8258 12.1328 38.6656 12.0972 38.5291 12.0794C38.0663 11.9845 37.6451 11.9963 37.2713 12.1031C36.8976 12.2099 36.6662 12.4057 36.589 12.6905C36.5178 12.9337 36.6306 13.2423 36.9272 13.6101C37.2179 13.9779 37.7519 14.5238 38.5232 15.2535C39.3953 16.0485 39.9174 16.6062 40.0954 16.9207C40.4277 17.603 40.4336 18.5344 40.1073 19.7032C39.9234 20.344 39.6801 20.8602 39.3716 21.2399C39.0453 21.6136 38.5766 21.94 37.9714 22.2188C37.3663 22.4977 36.8323 22.6282 36.3636 22.6222C35.9008 22.6104 35.444 22.5451 34.9931 22.4146C34.1447 22.1773 33.3734 21.7857 32.6852 21.2339C31.9969 20.6822 31.552 20.0948 31.3384 19.46C31.1545 18.9616 31.1545 18.3802 31.3443 17.7216C31.4689 17.2707 31.6291 16.98 31.8308 16.8495C32.0622 16.6715 32.2995 16.6181 32.5428 16.6834C32.8631 16.7783 33.3615 17.1699 34.0438 17.87C34.7202 18.57 35.2719 18.9853 35.705 19.104C36.0432 19.1989 36.3992 19.1574 36.7789 18.9794C37.0399 18.8311 37.1823 18.7362 37.2061 18.7006C37.2239 18.665 37.1764 18.5641 37.0637 18.3861C36.7314 17.9886 36.3043 17.5436 35.794 17.0512C33.8243 15.1705 33.0589 13.438 33.5039 11.8539C33.5929 11.5336 33.7116 11.2607 33.854 11.0352C34.6371 9.68842 35.8771 9.04766 37.562 9.11292Z" fill="#75DDE6"/>
<path d="M57.5568 12.0793C57.7823 11.9844 58.0255 11.9132 58.2984 11.8717C59.3782 11.7115 60.4936 11.9251 61.6446 12.5243C62.7897 13.1235 63.6618 13.9541 64.2551 15.0102C64.5874 15.6154 64.8128 16.3392 64.9433 17.1698C65.1213 18.3742 65.0739 19.626 64.795 20.9254C64.5221 22.2306 64.0534 23.3282 63.4008 24.2182C62.6651 25.2446 61.5853 25.9031 60.1673 26.1998L59.7639 26.2591C57.9247 26.5379 56.3228 26.1523 54.9463 25.0903C53.5699 24.0283 52.7393 22.5629 52.4545 20.6821C52.3892 20.2727 52.3596 19.8634 52.3536 19.4421C52.3418 16.9859 53.2792 15.1051 55.1777 13.8058C55.949 13.2719 56.4236 12.904 56.6135 12.6964C56.8508 12.4412 57.1652 12.2336 57.5568 12.0793ZM58.7612 15.3425C57.6518 15.1763 57.0347 15.0992 56.922 15.117C56.7084 15.1526 56.4058 15.4493 56.0202 16.0129C55.6286 16.5824 55.3616 17.1223 55.2252 17.6385C55.0235 18.2674 54.9938 19.0506 55.1362 20.0058C55.2311 20.6228 55.326 21.044 55.415 21.2576C55.51 21.4712 55.6879 21.7441 55.9549 22.0823C56.388 22.5925 56.9042 22.9663 57.4916 23.2155C58.0849 23.4647 58.6604 23.5418 59.218 23.4587C59.4732 23.4231 59.6868 23.3579 59.8707 23.2689C60.3572 23.0553 60.7843 22.5688 61.1641 21.8094C61.5438 21.044 61.7811 20.1897 61.876 19.2463C61.9294 18.5641 61.9235 18.0182 61.8641 17.6088C61.7633 16.9325 61.4726 16.4223 60.992 16.0781C60.5174 15.734 59.7757 15.4849 58.7612 15.3425Z" fill="#75DDE6"/>
<path d="M65.565 6.1293C65.6777 6.02844 65.8379 5.95132 66.0396 5.88012C66.4312 5.75553 66.7337 5.76739 66.9473 5.92758C67.2855 6.1471 68.2229 8.06938 69.7477 11.6944L70.6139 13.6997L71.1479 12.7861C72.2514 10.9172 72.9693 9.93232 73.3015 9.8196C73.7287 9.68314 74.0253 9.87299 74.1974 10.3951C74.2864 10.6739 74.055 11.5342 73.4914 12.9759C72.9099 14.4651 72.6192 15.2245 72.6252 15.2423C72.6548 15.3313 73.0523 15.4322 73.8296 15.5271C75.9951 15.8119 77.5317 16.7196 78.4454 18.2563C78.5937 18.541 78.7124 18.8021 78.7895 19.0394C79.0505 19.8463 78.8014 20.3684 78.036 20.6176C77.7216 20.7244 77.3597 20.6828 76.9562 20.5108C76.5468 20.3328 75.9298 19.9471 75.0992 19.3538C74.767 19.0869 74.2805 18.8199 73.6456 18.541C73.0108 18.2622 72.6192 18.1495 72.4709 18.1969C72.4353 18.2088 72.5302 18.5588 72.7557 19.253C72.9752 19.9412 73.1651 20.7125 73.3193 21.5728C73.4736 22.4271 73.4439 23.0263 73.2244 23.3645C73.0464 23.6315 72.7972 23.8154 72.4828 23.9222C72.1624 24.0231 71.8598 24.0112 71.5691 23.8748C71.0945 23.679 70.6258 23.0204 70.1571 21.8931C69.6884 20.7659 68.7984 18.1791 67.4872 14.1329C65.9209 9.30343 65.1497 6.80566 65.1734 6.62767C65.1971 6.51495 65.3276 6.34882 65.565 6.1293Z" fill="#75DDE6"/>
<path d="M84.041 6.78832C84.4267 6.5688 84.8005 6.41455 85.1564 6.30775C86.527 5.91025 87.8441 5.96958 89.1137 6.47981C89.5231 6.64593 89.8197 6.70526 89.9859 6.65187C90.1164 6.61627 90.3418 6.65187 90.6563 6.76459C90.8877 6.85952 91.0835 7.10277 91.2496 7.48248C91.4098 7.86219 91.7895 9.03691 92.4006 11.0066C92.8277 12.3534 93.0829 13.1781 93.1719 13.4748C93.4685 14.513 93.605 15.1834 93.5694 15.492C93.5338 15.7945 93.338 16.0734 92.982 16.3166C92.8693 16.4116 92.7269 16.4828 92.5548 16.5362C92.2582 16.6192 91.9497 16.6133 91.6352 16.5124C91.3208 16.4056 91.0894 16.2336 90.9351 15.9963C90.7571 15.7174 90.6385 15.5691 90.591 15.5394C90.5673 15.5276 90.3656 15.7115 89.9859 16.0853C89.1849 16.9099 88.1822 17.4973 86.9838 17.8414C85.198 18.3635 83.7325 18.2033 82.5756 17.3786C81.6916 16.7141 81.0627 15.7352 80.6889 14.43C80.4338 13.546 80.3686 12.6857 80.4991 11.8551C80.6296 10.8999 81.0212 9.95059 81.6797 9.01318C82.3324 8.08171 83.1214 7.34009 84.041 6.78832ZM87.9568 8.7106C87.7907 8.71653 87.3398 8.81146 86.5981 8.98351L86.5388 9.00131C85.7735 9.22083 85.1327 9.65987 84.6284 10.3066C84.1241 10.9533 83.8037 11.7423 83.6673 12.6797C83.5901 13.1306 83.5901 13.4807 83.6613 13.7239C83.7088 13.896 83.8512 14.1096 84.0885 14.3647C84.2962 14.5902 84.6225 14.7385 85.0674 14.8037C85.5124 14.869 85.9455 14.8393 86.3549 14.7207C87.1677 14.4834 87.8144 13.8307 88.295 12.7628C88.7815 11.6949 88.9061 10.6388 88.6687 9.60647C88.651 9.53528 88.6272 9.44035 88.6035 9.33356C88.5857 9.22676 88.5679 9.15557 88.562 9.11997C88.5026 8.91232 88.4314 8.78773 88.3602 8.7462C88.289 8.7106 88.1526 8.69873 87.9568 8.7106Z" fill="#75DDE6"/>
<path d="M96.9855 3.70173C97.2169 3.42882 97.472 3.28049 97.7449 3.25676C97.9763 3.23896 98.2196 3.30422 98.4687 3.45848C98.6764 3.60087 98.7891 3.78479 98.8069 4.02211C98.8247 4.2357 98.8366 4.43148 98.8306 4.60947C98.7951 5.85539 98.8128 6.83433 98.8722 7.55815C98.9256 8.18704 99.0324 8.70914 99.1807 9.13038C99.4299 9.75927 99.7977 10.2339 100.272 10.5543C100.753 10.8806 101.257 11.0171 101.779 10.9755C102.794 10.8865 103.5 10.3051 103.897 9.22531C104.129 8.65574 104.23 7.82513 104.218 6.7216C104.194 5.76046 104.265 5.11971 104.437 4.81119C104.609 4.50268 104.983 4.32469 105.57 4.27129C106.075 4.22976 106.431 4.34842 106.644 4.62134C106.852 4.90019 107.113 5.57654 107.416 6.65634C108.074 9.10072 108.478 11.1772 108.626 12.8978C108.887 15.9889 108.341 18.368 106.994 20.0351C105.57 21.7735 103.915 22.7168 102.023 22.883C101.987 22.883 101.91 22.883 101.791 22.883C101.673 22.883 101.595 22.8889 101.554 22.8889C100.284 22.9186 99.1036 22.5388 98.0178 21.7438C97.3059 21.2573 96.9262 20.7234 96.8787 20.1597C96.8668 20.0233 96.8728 19.9224 96.8846 19.8631C96.9677 19.424 97.2762 19.1808 97.822 19.1333C98.1721 19.1037 98.6942 19.1215 99.3883 19.1808C100.433 19.2639 101.251 19.2876 101.833 19.2342C102.847 19.1511 103.624 18.7358 104.17 18.0001C104.556 17.478 104.859 16.8135 105.078 16.0067C105.292 15.1998 105.375 14.4582 105.315 13.7699L105.25 12.9809L104.467 13.4911C103.963 13.7877 103.399 13.9657 102.776 14.0191L102.456 14.0429C100.972 14.1319 99.6909 13.7818 98.6111 12.9987C97.5373 12.2155 96.8194 11.1001 96.4634 9.65248C96.3744 9.30837 96.3151 8.92866 96.2795 8.51929C96.1964 7.58188 96.232 6.62074 96.3744 5.64774C96.5168 4.6688 96.7185 4.02211 96.9855 3.70173Z" fill="#75DDE6"/>
<mask id="mask0_186_216" style="mask-type:luminance" maskUnits="userSpaceOnUse" x="121" y="0" width="12" height="19">
<path d="M121.377 0H132.009V18.932H121.377V0Z" fill="white"/>
</mask>
<g mask="url(#mask0_186_216)">
<path d="M127.055 0.385779C127.227 0.373914 127.399 0.397644 127.589 0.456974C127.945 0.569699 128.206 0.741756 128.378 0.979074C128.544 1.23419 128.538 1.80969 128.366 2.69963C128.153 3.66077 128.028 4.19473 127.993 4.30746C127.957 4.50324 128.254 4.69903 128.889 4.89482C130.467 5.42879 131.119 6.11107 130.864 6.95355C130.805 7.14341 130.71 7.30953 130.585 7.45192C130.223 7.89689 129.428 7.92656 128.194 7.54092L127.328 7.27393L127.12 8.44272C126.865 9.7361 126.717 10.9642 126.676 12.1212C126.634 13.2781 126.699 14.0612 126.859 14.4587C126.978 14.6783 127.162 14.8325 127.423 14.9096C127.465 14.9215 127.672 14.969 128.058 15.0461C128.236 15.0817 128.444 15.1351 128.687 15.2122C128.948 15.2893 129.155 15.4792 129.31 15.7758C129.464 16.0666 129.511 16.3157 129.446 16.5234C129.405 16.6539 129.357 16.7726 129.304 16.8794C129.007 17.5083 128.586 17.9295 128.04 18.149C127.488 18.3685 126.907 18.3863 126.29 18.1906C125.619 17.9829 125.014 17.5735 124.474 16.9684C123.934 16.3573 123.567 15.6216 123.359 14.7554C123.169 13.9188 123.134 12.8094 123.252 11.427C123.371 10.0506 123.614 8.75124 123.994 7.53498L124.403 6.21193L123.84 6.03988C122.41 5.57118 121.799 4.92449 122.018 4.08794C122.107 3.80316 122.261 3.63704 122.481 3.58364C122.7 3.53024 123.151 3.55397 123.834 3.6667C124.658 3.77943 125.085 3.82689 125.109 3.81502L125.744 2.34958C126.242 1.06807 126.681 0.409512 127.055 0.385779Z" fill="#75DDE6"/>
</g>
<path d="M142.345 8.87024C142.588 8.89397 142.837 8.9533 143.092 9.04229C144.124 9.41607 145.003 10.134 145.732 11.2078C146.462 12.2817 146.836 13.4267 146.86 14.643C146.865 15.3312 146.723 16.0728 146.438 16.8679C146.035 18.0129 145.4 19.0927 144.54 20.1072C143.679 21.1218 142.748 21.8634 141.751 22.338C140.618 22.8957 139.36 22.961 137.972 22.5457L137.586 22.4092C135.836 21.7803 134.608 20.6768 133.896 19.0868C133.184 17.4967 133.149 15.8059 133.789 14.02C133.926 13.6285 134.092 13.2488 134.282 12.8809C135.433 10.7095 137.147 9.50506 139.437 9.26181C140.363 9.16095 140.962 9.06009 141.223 8.96516C141.55 8.85837 141.929 8.82277 142.345 8.87024ZM141.864 12.3232C140.962 11.6409 140.458 11.2849 140.345 11.2434C140.143 11.1722 139.74 11.2909 139.129 11.6053C138.518 11.9198 138.031 12.2698 137.663 12.6555C137.189 13.1123 136.791 13.7946 136.471 14.6964C136.257 15.2897 136.145 15.6991 136.127 15.9304C136.103 16.1678 136.133 16.4941 136.21 16.9153C136.352 17.5739 136.625 18.1494 137.023 18.6477C137.426 19.1461 137.901 19.4902 138.429 19.6801C138.672 19.7691 138.892 19.8165 139.093 19.8284C139.621 19.8699 140.232 19.6445 140.927 19.152C141.615 18.6655 142.232 18.0248 142.76 17.2357C143.128 16.6602 143.383 16.1796 143.525 15.7881C143.751 15.1414 143.739 14.554 143.484 14.026C143.223 13.4979 142.683 12.9284 141.864 12.3232Z" fill="#75DDE6"/>
<path d="M161.573 8.33552C161.97 8.06854 162.397 7.87868 162.854 7.76596C163.72 7.54051 164.48 7.71256 165.132 8.27619C165.471 8.59657 165.678 8.89322 165.75 9.178C165.827 9.48651 165.773 9.79503 165.589 10.1035C165.429 10.4061 165.192 10.596 164.889 10.6731C164.646 10.7384 164.32 10.7384 163.922 10.679C163.608 10.6375 163.359 10.6434 163.169 10.6909C162.771 10.7918 162.51 11.1833 162.38 11.8597C162.255 12.5835 162.208 13.2302 162.237 13.8116L162.279 14.8321L162.599 14.66C162.724 14.5889 163.151 14.4405 163.881 14.2091L164.278 14.1083C164.693 14.0015 165.049 14.0549 165.346 14.2625C165.661 14.4643 165.868 14.7787 165.975 15.194C166.088 15.6508 166.04 15.995 165.827 16.2204C165.607 16.4459 165.091 16.695 164.272 16.962C163.335 17.3239 162.86 17.5138 162.848 17.5375C162.831 17.5613 163.103 19.1276 163.655 22.2364C164.213 25.3394 164.45 26.9828 164.373 27.1667C164.302 27.3447 164.1 27.4811 163.78 27.5642C163.513 27.6295 163.311 27.6117 163.163 27.5049C163.032 27.3981 162.629 26.3539 161.947 24.3723C161.258 22.3907 160.778 20.8422 160.493 19.7209L160.03 17.8935L159.544 17.9884C158.642 18.1783 158.054 18.1961 157.77 18.0418C157.521 17.9291 157.354 17.7036 157.271 17.3833C157.212 17.1341 157.218 16.9027 157.307 16.6772C157.39 16.4518 157.782 16.2204 158.488 15.9772L159.55 15.6212L159.407 14.7134C159.318 13.9659 159.294 13.2658 159.33 12.6072C159.354 12.0555 159.413 11.6342 159.508 11.3495C159.609 11.0587 159.828 10.6316 160.167 10.0561C160.659 9.22546 161.128 8.64997 161.573 8.33552Z" fill="#75DDE6"/>
<path d="M174.026 8.55502C174.489 8.23464 174.916 7.99732 175.296 7.849C176.192 7.51082 177.135 7.39216 178.126 7.49896C179.117 7.59982 179.947 7.92613 180.612 8.47196C181.003 8.78047 181.27 9.13052 181.419 9.51616C181.437 9.56956 181.466 9.65855 181.502 9.78314C181.537 9.90773 181.573 10.0145 181.609 10.1035C182.196 11.9961 181.757 13.4853 180.286 14.571C179.793 14.927 179.164 15.2533 178.399 15.544C177.628 15.8348 176.833 16.0543 176.014 16.2026C175.314 16.345 174.934 16.4221 174.881 16.4458L174.851 16.4577C174.821 16.5289 175.076 16.7188 175.634 17.0213C176.186 17.3239 176.589 17.5019 176.838 17.5553C177.165 17.5968 177.604 17.5968 178.156 17.5553C178.476 17.5197 178.725 17.4663 178.909 17.3951C179.437 17.1934 180.167 16.6654 181.098 15.8051C181.591 15.3423 181.988 15.0575 182.279 14.9448C182.754 14.7668 183.234 14.8973 183.715 15.3423C183.893 15.5262 184.011 15.7102 184.083 15.8941C184.249 16.3331 184.195 16.8789 183.916 17.5316C183.65 18.202 183.305 18.7241 182.896 19.1038C182.487 19.4776 181.876 19.8395 181.069 20.1895C180.974 20.2251 180.861 20.2785 180.713 20.3438C180.57 20.4091 180.475 20.4506 180.422 20.4684C179.87 20.682 179.259 20.8066 178.589 20.854C177.527 20.9252 176.506 20.7947 175.527 20.4743C174.548 20.1599 173.753 19.6852 173.142 19.0563C172.395 18.2969 171.843 17.4426 171.487 16.5111C170.953 15.0991 170.911 13.6752 171.356 12.2334C171.807 10.7917 172.697 9.56956 174.026 8.55502ZM177.295 10.1451C176.815 10.1984 176.548 10.24 176.488 10.2578C176.316 10.3468 176.061 10.5544 175.723 10.8807C175.385 11.213 175.118 11.5215 174.91 11.8063C174.667 12.1504 174.471 12.5479 174.323 12.9869C174.181 13.4319 174.139 13.7404 174.198 13.9006C174.234 13.9955 174.299 14.0252 174.388 13.9896L176.097 13.5268C176.702 13.3607 177.194 13.2005 177.58 13.0522C178.458 12.72 178.992 12.3402 179.188 11.9071C179.324 11.6046 179.336 11.3079 179.224 11.0113C179.111 10.7205 178.885 10.4892 178.541 10.329C178.197 10.1688 177.782 10.1035 177.295 10.1451Z" fill="#75DDE6"/>
<path d="M190.893 3.71388C191.415 3.50029 191.878 3.36977 192.287 3.31044C193.236 3.17991 194.18 3.27484 195.123 3.60115C196.066 3.92153 196.802 4.42583 197.33 5.10219C197.638 5.4997 197.822 5.8972 197.882 6.30658C197.888 6.36591 197.894 6.4549 197.905 6.58543C197.911 6.71002 197.923 6.82274 197.935 6.9236C198.089 8.89928 197.33 10.252 195.657 10.9817C195.093 11.2191 194.411 11.3911 193.598 11.5038C192.785 11.6166 191.961 11.6522 191.124 11.6106C190.412 11.5928 190.026 11.5869 189.967 11.5928L189.938 11.5988C189.89 11.664 190.098 11.9073 190.572 12.3285C191.047 12.7438 191.397 13.0108 191.628 13.1117C191.943 13.2303 192.37 13.3312 192.91 13.4083C193.23 13.4439 193.491 13.4498 193.681 13.4202C194.245 13.3431 195.075 12.993 196.173 12.3641C196.754 12.0259 197.205 11.8361 197.514 11.7886C198.018 11.7234 198.451 11.9547 198.825 12.5006C198.956 12.7201 199.033 12.9277 199.056 13.1176C199.122 13.5863 198.95 14.1084 198.534 14.678C198.125 15.2713 197.674 15.7044 197.188 15.9773C196.707 16.2561 196.031 16.4697 195.164 16.6299C195.064 16.6477 194.939 16.6655 194.785 16.7011C194.636 16.7308 194.53 16.7486 194.47 16.7604C193.889 16.8376 193.266 16.8257 192.601 16.7189C191.551 16.5528 190.584 16.1968 189.7 15.6688C188.822 15.1407 188.152 14.5 187.689 13.7524C187.131 12.8388 186.781 11.8895 186.645 10.8987C186.437 9.39764 186.716 8.0034 187.469 6.69815C188.229 5.39291 189.368 4.4021 190.893 3.71388ZM193.723 5.99213C193.242 5.93873 192.975 5.92094 192.916 5.92687C192.726 5.97433 192.429 6.11672 192.026 6.35997C191.628 6.60322 191.296 6.84648 191.029 7.07786C190.715 7.36264 190.436 7.70082 190.193 8.10426C189.955 8.50177 189.849 8.78655 189.872 8.96454C189.884 9.05947 189.938 9.101 190.038 9.08913L191.8 9.02387C192.429 8.9942 192.946 8.95267 193.355 8.89334C194.28 8.76282 194.892 8.51364 195.17 8.13393C195.372 7.87288 195.449 7.58216 195.408 7.27365C195.366 6.9592 195.194 6.68629 194.897 6.4549C194.595 6.21758 194.203 6.06333 193.723 5.99213Z" fill="#75DDE6"/>
<mask id="mask1_186_216" style="mask-type:luminance" maskUnits="userSpaceOnUse" x="201" y="0" width="7" height="19">
<path d="M201.875 0H207.95V18.932H201.875V0Z" fill="white"/>
</mask>
<g mask="url(#mask1_186_216)">
<path d="M205.862 0.212604C206.123 0.0524138 206.39 0.0049491 206.681 0.076146C207.06 0.165139 207.333 0.366861 207.499 0.68724C207.63 0.900826 207.671 1.2924 207.63 1.8679C207.582 2.44339 207.404 3.97409 207.084 6.45407C206.615 10.091 206.372 12.0073 206.366 12.209C206.307 13.3244 206.152 14.422 205.897 15.5137C205.535 17.0622 205.09 18.0411 204.574 18.4624C204.201 18.759 203.839 18.8658 203.477 18.7827C203.133 18.6997 202.848 18.4683 202.616 18.0767C202.385 17.6911 202.237 17.1986 202.177 16.5994C202.136 16.107 202.207 15.3832 202.403 14.4339C202.593 13.4787 203.305 10.2393 204.539 4.70978L204.984 2.81717C205.352 1.23307 205.648 0.366861 205.862 0.212604Z" fill="#75DDE6"/>
</g>
<path d="M25.2804 121.382C25.577 121.186 25.8618 121.109 26.1288 121.162C26.3602 121.209 26.5737 121.34 26.7695 121.56C26.9297 121.749 26.9891 121.963 26.9475 122.194C26.906 122.408 26.8585 122.598 26.8051 122.764C26.4314 123.95 26.1762 124.9 26.0338 125.612C25.9152 126.229 25.8677 126.757 25.9033 127.202C25.9686 127.878 26.1881 128.436 26.5619 128.881C26.9297 129.32 27.3747 129.593 27.8909 129.7C28.8876 129.895 29.7301 129.527 30.4064 128.602C30.7802 128.121 31.1125 127.344 31.4032 126.282C31.6464 125.351 31.8897 124.757 32.1389 124.508C32.388 124.259 32.7974 124.188 33.3729 124.306C33.8713 124.401 34.1857 124.615 34.3103 124.935C34.4349 125.262 34.5002 125.985 34.5002 127.107C34.4586 129.634 34.2747 131.746 33.9425 133.443C33.3432 136.481 32.1685 138.617 30.4124 139.851C28.5672 141.126 26.7161 141.577 24.8591 141.209C24.8176 141.203 24.7405 141.18 24.6277 141.15C24.515 141.12 24.4379 141.097 24.4023 141.091C23.1682 140.764 22.1418 140.076 21.3112 139.008C20.7654 138.344 20.5459 137.733 20.6586 137.175C20.6823 137.039 20.712 136.944 20.7417 136.89C20.9434 136.487 21.3112 136.344 21.8452 136.445C22.1893 136.516 22.6877 136.677 23.3403 136.92C24.3192 137.294 25.0964 137.543 25.6719 137.656C26.6687 137.851 27.5349 137.673 28.2587 137.116C28.7749 136.718 29.2495 136.16 29.6767 135.449C30.1098 134.731 30.3886 134.036 30.5192 133.366L30.6734 132.583L29.7835 132.856C29.2139 133.004 28.6265 133.022 28.0095 132.897L27.6951 132.838C26.2474 132.512 25.1083 131.818 24.2896 130.767C23.4708 129.717 23.0911 128.448 23.1386 126.958C23.1504 126.603 23.1979 126.223 23.275 125.819C23.4589 124.894 23.7497 123.98 24.159 123.084C24.5625 122.182 24.9363 121.619 25.2804 121.382Z" fill="#FFDD8F"/>
<path d="M46.4366 123.839C46.674 123.839 46.9291 123.881 47.1901 123.952C48.2462 124.242 49.1777 124.901 49.9845 125.916C50.7914 126.93 51.2483 128.045 51.3669 129.256C51.4203 129.944 51.3373 130.692 51.1118 131.504C50.7914 132.679 50.2397 133.8 49.4565 134.874C48.6734 135.954 47.8012 136.767 46.846 137.313C45.7544 137.948 44.5025 138.114 43.0905 137.799L42.693 137.692C40.9012 137.2 39.596 136.185 38.7713 134.655C37.9407 133.124 37.7805 131.445 38.2848 129.612C38.3916 129.214 38.528 128.823 38.6941 128.443C39.679 126.188 41.2987 124.859 43.5592 124.444C44.4788 124.272 45.0661 124.13 45.3212 124.017C45.6416 123.881 46.0154 123.821 46.4366 123.839ZM46.2112 127.316C45.2619 126.705 44.7339 126.384 44.6212 126.355C44.4135 126.295 44.016 126.45 43.4286 126.805C42.8472 127.161 42.3844 127.547 42.0463 127.962C41.6132 128.455 41.2631 129.161 41.008 130.086C40.8419 130.692 40.7588 131.113 40.7588 131.344C40.7529 131.582 40.8063 131.902 40.9131 132.317C41.1029 132.964 41.4174 133.516 41.8564 133.984C42.2954 134.453 42.7879 134.762 43.3396 134.91C43.5829 134.981 43.8083 135.011 44.0101 135.005C44.5381 135.011 45.1255 134.738 45.784 134.198C46.4366 133.658 47.0003 132.976 47.469 132.145C47.7953 131.546 48.0148 131.048 48.1216 130.65C48.3055 129.986 48.2462 129.404 47.9495 128.894C47.6529 128.384 47.0774 127.856 46.2112 127.316Z" fill="#FFDD8F"/>
<path d="M62.4079 125.755C62.6512 125.405 62.9775 125.185 63.3809 125.102C63.7072 125.031 64.0098 125.066 64.3005 125.209C64.5675 125.333 64.7455 125.606 64.8345 126.028C64.8997 126.354 64.9531 126.651 64.9887 126.923C65.7007 130.904 65.8075 133.806 65.3151 135.633C64.8167 137.46 63.6123 138.576 61.7019 138.979C60.361 139.264 59.2219 139.122 58.2845 138.558C56.8428 137.68 55.8401 135.9 55.2824 133.212C55.0689 132.21 54.9205 131.171 54.8375 130.086C54.7247 128.786 54.7663 128.027 54.9561 127.807C55.1519 127.588 55.3418 127.457 55.5376 127.416C55.763 127.368 56.0063 127.416 56.2554 127.564C56.4809 127.677 56.647 127.873 56.7538 128.152C56.8606 128.43 57.0979 129.338 57.4598 130.887C57.8573 132.607 58.2014 133.788 58.4862 134.429C58.771 135.069 59.1507 135.574 59.6254 135.93C59.9754 136.179 60.2661 136.28 60.4975 136.232C60.6518 136.197 60.7823 136.161 60.8891 136.114C62.0875 135.722 62.7402 134.583 62.841 132.696C62.8588 132.216 62.7283 131.011 62.4435 129.083L61.9807 126.295L62.4079 125.755Z" fill="#FFDD8F"/>
<path d="M71.4335 122.284C71.748 122.058 72.0862 121.886 72.4362 121.768C72.9583 121.602 73.4982 121.56 74.0618 121.643C75.1416 121.803 75.818 122.308 76.0909 123.144C76.3401 123.909 76.1562 124.39 75.5451 124.592C75.1891 124.704 74.7441 124.722 74.1983 124.627L73.2906 124.491L73.0117 124.954C72.3532 126.158 72.4421 128.051 73.2787 130.626C73.427 131.088 73.5516 131.438 73.6525 131.676L74.489 133.877L74.1212 134.553C73.8957 134.998 73.5635 135.295 73.1185 135.443C72.632 135.597 72.2167 135.52 71.8667 135.2C71.7421 135.075 71.2674 134.144 70.4368 132.405C69.6003 130.667 68.9536 129.231 68.4849 128.11C68.301 127.671 68.1645 127.315 68.0696 127.036C67.9746 126.739 67.8975 126.431 67.8382 126.122C67.7611 125.63 67.7848 125.215 67.9094 124.877C68.034 124.532 68.2476 124.319 68.5442 124.218C68.8408 124.123 69.1375 124.141 69.4282 124.271L69.9325 124.509L70.4605 123.559C70.8225 122.907 71.1488 122.48 71.4335 122.284Z" fill="#FFDD8F"/>
<path d="M91.3804 111C91.7779 110.745 92.211 110.567 92.6678 110.454C93.54 110.252 94.2934 110.436 94.9342 111.012C95.2724 111.332 95.4741 111.641 95.5394 111.925C95.6106 112.228 95.5512 112.536 95.3614 112.839C95.1953 113.142 94.9579 113.332 94.6494 113.403C94.4062 113.462 94.0799 113.456 93.6824 113.391C93.3738 113.343 93.1187 113.343 92.9289 113.385C92.5314 113.48 92.2584 113.865 92.1161 114.548C91.9855 115.26 91.9262 115.912 91.944 116.488L91.9737 117.508L92.294 117.342C92.4186 117.277 92.8458 117.135 93.5815 116.921L93.979 116.826C94.3943 116.725 94.7503 116.784 95.041 116.998C95.3554 117.206 95.5572 117.52 95.658 117.941C95.7648 118.398 95.7055 118.742 95.486 118.962C95.2724 119.187 94.7503 119.425 93.9256 119.68C92.9823 120.024 92.5017 120.208 92.4898 120.232C92.472 120.255 92.7153 121.822 93.2136 124.936C93.712 128.057 93.9256 129.701 93.8485 129.884C93.7713 130.062 93.5696 130.187 93.2433 130.264C92.9763 130.329 92.7746 130.306 92.6263 130.199C92.5017 130.092 92.1161 129.036 91.4634 127.043C90.8167 125.049 90.3599 123.495 90.0988 122.367L89.6657 120.534L89.1733 120.617C88.2715 120.789 87.6841 120.801 87.4053 120.641C87.1561 120.522 86.99 120.297 86.9129 119.976C86.8595 119.727 86.8713 119.49 86.9603 119.27C87.0493 119.045 87.4468 118.819 88.1588 118.594L89.2208 118.25L89.1021 117.342C89.025 116.595 89.0131 115.895 89.0606 115.236C89.0902 114.684 89.1555 114.269 89.2623 113.978C89.3632 113.693 89.5886 113.266 89.9387 112.703C90.4489 111.878 90.9295 111.308 91.3804 111Z" fill="#FFDD8F"/>
<path d="M107.766 114.359C108.318 114.246 108.805 114.193 109.214 114.21C110.169 114.246 111.083 114.513 111.955 114.999C112.821 115.486 113.462 116.109 113.86 116.868C114.097 117.313 114.204 117.74 114.192 118.15C114.186 118.209 114.18 118.304 114.162 118.429C114.15 118.559 114.138 118.666 114.138 118.767C113.937 120.743 112.952 121.941 111.178 122.356C110.585 122.493 109.879 122.54 109.054 122.511C108.235 122.475 107.416 122.362 106.604 122.172C105.909 122.03 105.53 121.953 105.47 121.953H105.441C105.381 122.006 105.548 122.285 105.933 122.778C106.325 123.276 106.627 123.596 106.835 123.745C107.126 123.911 107.529 124.083 108.045 124.261C108.36 124.356 108.609 124.403 108.805 124.409C109.368 124.433 110.252 124.237 111.439 123.81C112.074 123.584 112.548 123.472 112.863 123.484C113.367 123.507 113.759 123.816 114.026 124.415C114.115 124.652 114.156 124.872 114.15 125.068C114.132 125.536 113.866 126.017 113.355 126.509C112.851 127.02 112.329 127.364 111.807 127.548C111.279 127.738 110.579 127.832 109.695 127.832C109.6 127.827 109.469 127.827 109.315 127.832C109.155 127.838 109.048 127.838 108.989 127.832C108.407 127.809 107.796 127.69 107.155 127.465C106.153 127.115 105.263 126.598 104.491 125.916C103.714 125.24 103.168 124.492 102.848 123.673C102.456 122.677 102.284 121.674 102.32 120.677C102.385 119.17 102.901 117.841 103.874 116.69C104.847 115.539 106.147 114.762 107.766 114.359ZM110.151 117.106C109.689 116.969 109.428 116.898 109.368 116.898C109.173 116.91 108.858 116.999 108.419 117.165C107.98 117.337 107.612 117.515 107.31 117.699C106.954 117.918 106.615 118.203 106.307 118.553C106.004 118.903 105.844 119.17 105.838 119.348C105.832 119.443 105.88 119.497 105.981 119.497L107.731 119.746C108.354 119.829 108.87 119.882 109.279 119.894C110.217 119.936 110.858 119.793 111.202 119.473C111.445 119.247 111.575 118.975 111.587 118.666C111.599 118.352 111.48 118.049 111.225 117.764C110.976 117.479 110.614 117.26 110.151 117.106Z" fill="#FFDD8F"/>
<path d="M125.292 117.289C125.856 117.313 126.33 117.384 126.728 117.497C127.648 117.77 128.466 118.25 129.196 118.932C129.92 119.621 130.389 120.38 130.59 121.217C130.709 121.703 130.715 122.142 130.602 122.534C130.584 122.593 130.555 122.682 130.507 122.801C130.46 122.919 130.424 123.026 130.4 123.121C129.73 124.99 128.484 125.91 126.657 125.88C126.052 125.868 125.351 125.744 124.562 125.512C123.779 125.275 123.014 124.972 122.266 124.587C121.626 124.272 121.276 124.112 121.222 124.094L121.192 124.088C121.121 124.124 121.21 124.432 121.471 125.014C121.732 125.589 121.94 125.975 122.112 126.165C122.349 126.402 122.699 126.663 123.162 126.966C123.441 127.132 123.672 127.239 123.856 127.292C124.402 127.452 125.304 127.476 126.562 127.357C127.232 127.286 127.719 127.298 128.021 127.387C128.508 127.529 128.81 127.927 128.923 128.574C128.953 128.829 128.941 129.048 128.882 129.238C128.751 129.689 128.377 130.086 127.766 130.442C127.149 130.81 126.562 131.018 126.01 131.071C125.452 131.125 124.746 131.042 123.892 130.828C123.797 130.804 123.678 130.775 123.524 130.739C123.37 130.703 123.269 130.674 123.21 130.662C122.646 130.496 122.082 130.223 121.519 129.855C120.635 129.268 119.893 128.55 119.312 127.701C118.724 126.853 118.374 125.993 118.262 125.121C118.125 124.059 118.196 123.05 118.475 122.089C118.902 120.641 119.727 119.478 120.949 118.6C122.171 117.728 123.619 117.289 125.292 117.289ZM126.936 120.534C126.52 120.291 126.283 120.161 126.23 120.143C126.034 120.107 125.707 120.119 125.239 120.172C124.776 120.232 124.373 120.315 124.04 120.416C123.637 120.54 123.239 120.742 122.86 121.003C122.474 121.27 122.26 121.49 122.207 121.656C122.183 121.751 122.213 121.81 122.308 121.84L123.945 122.504C124.527 122.741 125.019 122.913 125.411 123.032C126.313 123.293 126.965 123.317 127.381 123.091C127.671 122.931 127.861 122.7 127.95 122.397C128.039 122.101 127.992 121.78 127.82 121.442C127.642 121.104 127.351 120.801 126.936 120.534Z" fill="#FFDD8F"/>
<path d="M136.725 117.319C137.004 117.188 137.277 117.176 137.55 117.277C137.918 117.414 138.167 117.651 138.291 117.989C138.398 118.215 138.392 118.612 138.28 119.176C138.167 119.739 137.805 121.234 137.188 123.661C136.286 127.215 135.817 129.09 135.788 129.285C135.598 130.383 135.307 131.457 134.921 132.507C134.382 134.002 133.824 134.922 133.254 135.278C132.851 135.527 132.477 135.586 132.127 135.462C131.801 135.337 131.54 135.07 131.362 134.661C131.178 134.245 131.089 133.741 131.101 133.142C131.118 132.643 131.279 131.937 131.581 131.012C131.89 130.092 132.987 126.96 134.874 121.62L135.539 119.793C136.096 118.268 136.494 117.437 136.725 117.319Z" fill="#FFDD8F"/>
<path d="M141.869 125.198C142 125.186 142.118 125.192 142.231 125.233C142.302 125.257 142.391 125.304 142.492 125.37C142.593 125.441 142.67 125.482 142.729 125.5C142.818 125.536 142.901 125.779 142.967 126.242C143.05 126.705 143.014 127.363 142.854 128.212C142.694 129.06 142.267 130.846 141.584 133.581C141.543 133.753 141.472 133.978 141.377 134.257C140.884 135.663 140.16 136.197 139.199 135.859C138.517 135.616 138.167 135.165 138.137 134.5C138.113 133.836 138.38 132.525 138.938 130.561C139.223 129.576 139.502 128.68 139.787 127.867C139.953 127.405 140.054 127.132 140.107 127.043C140.338 126.562 140.629 126.141 140.985 125.779C141.341 125.411 141.632 125.221 141.869 125.198ZM143.59 121.163C143.785 121.145 143.987 121.205 144.213 121.347C144.533 121.543 144.746 121.798 144.841 122.112C144.942 122.427 144.93 122.747 144.824 123.056C144.693 123.43 144.462 123.708 144.124 123.904C143.785 124.1 143.418 124.124 143.008 123.981C142.64 123.851 142.391 123.596 142.255 123.216C142.1 122.872 142.094 122.516 142.225 122.142C142.445 121.513 142.901 121.187 143.59 121.163Z" fill="#FFDD8F"/>
<path d="M147.653 126.224C148.021 125.975 148.401 125.891 148.781 125.975C149.166 126.052 149.475 126.289 149.712 126.675L150.044 127.256L151.053 127.013C151.581 126.882 152.032 126.859 152.418 126.936C152.643 126.983 152.833 127.031 152.981 127.084C155.147 127.731 156.339 129.689 156.565 132.958C156.618 133.972 156.387 135.734 155.871 138.25C155.71 139.039 155.568 139.573 155.449 139.846C155.337 140.125 155.236 140.285 155.159 140.326C155.082 140.374 154.904 140.386 154.625 140.368C154.257 140.332 154.014 140.231 153.907 140.071C153.818 139.852 153.8 139.057 153.859 137.686C154.02 133.717 153.77 131.273 153.124 130.353C152.869 130.021 152.572 129.819 152.228 129.748C151.842 129.671 151.439 129.76 151.006 130.009C150.501 130.347 150.116 130.822 149.861 131.439C149.605 132.056 149.273 133.308 148.864 135.182C148.443 137.14 148.193 138.25 148.11 138.511C148.027 138.772 147.867 138.98 147.636 139.134C147.357 139.318 147.001 139.365 146.562 139.27C146.081 139.175 145.737 138.95 145.529 138.612C145.316 138.285 145.233 138.001 145.286 137.745C145.351 137.443 145.737 134.619 146.455 129.279C146.526 128.733 146.586 128.365 146.627 128.17C146.823 127.191 147.167 126.538 147.653 126.224Z" fill="#FFDD8F"/>
<path d="M165.346 127.059C165.595 126.893 165.927 126.727 166.342 126.555C167.126 126.241 167.802 126.045 168.389 125.974C168.858 125.932 169.386 125.956 169.973 126.057C170.424 126.128 170.721 126.199 170.857 126.282C170.994 126.365 171.107 126.513 171.196 126.727C171.397 127.219 171.308 127.546 170.929 127.7C170.727 127.777 170.507 127.831 170.258 127.842C169.778 127.914 169.285 128.05 168.781 128.258C167.529 128.774 166.461 129.563 165.565 130.625C164.663 131.693 164.301 132.66 164.462 133.526C164.468 133.586 164.491 133.675 164.533 133.781C164.746 134.309 165.239 134.766 166.016 135.158C166.787 135.555 167.511 135.704 168.193 135.621C168.413 135.591 168.615 135.537 168.799 135.466C170.193 134.897 170.994 133.182 171.201 130.316C171.279 129.1 171.279 128.412 171.213 128.246C171.148 128.086 171.201 127.848 171.385 127.546C171.569 127.237 171.765 127.036 171.985 126.947C172.252 126.84 172.542 126.798 172.839 126.834C173.142 126.869 173.367 126.976 173.521 127.142C173.699 127.326 174.168 128.222 174.933 129.842C175.693 131.456 176.316 132.844 176.784 134.007C176.98 134.475 177.093 134.79 177.134 134.944C178.351 138.807 178.107 141.66 176.405 143.505C176.12 143.832 175.847 144.069 175.592 144.217C175.331 144.366 174.832 144.591 174.091 144.894L173.521 145.131C172.797 145.428 172.139 145.546 171.546 145.493C170.822 145.428 170.187 145.238 169.635 144.912C169.077 144.585 168.71 144.206 168.538 143.772C168.223 143.007 168.466 142.467 169.261 142.141C169.683 141.969 170.139 141.898 170.638 141.927C171.344 141.957 172.032 141.832 172.702 141.553C173.242 141.334 173.658 141.055 173.948 140.729C174.856 139.744 174.915 138.278 174.126 136.332L173.99 136.006L173.492 134.938L173.195 135.537C172.613 136.647 171.599 137.495 170.151 138.089C169.012 138.557 167.903 138.735 166.823 138.629C166.342 138.587 165.797 138.433 165.185 138.154C164.58 137.875 164.064 137.555 163.643 137.193C163.358 136.955 163.139 136.712 162.99 136.481C162.842 136.243 162.616 135.793 162.326 135.128C162.065 134.475 161.905 134.019 161.845 133.752C161.792 133.491 161.78 133.129 161.804 132.672C161.875 131.604 162.225 130.572 162.854 129.575C163.483 128.578 164.313 127.736 165.346 127.059Z" fill="#FFDD8F"/>
<path d="M181.087 122.492C181.342 122.326 181.674 122.178 182.083 122.047C182.665 121.857 183.264 121.78 183.887 121.804C184.492 121.834 185.109 122.071 185.75 122.516C186.385 122.955 186.776 123.424 186.936 123.904C186.972 124.017 186.99 124.106 186.99 124.165C187.014 124.634 186.812 124.937 186.385 125.073C186.07 125.174 185.827 125.097 185.667 124.842C185.524 124.664 185.257 124.492 184.854 124.331C184.504 124.201 184.213 124.171 183.994 124.242C183.804 124.302 183.65 124.361 183.525 124.426C183.092 124.604 182.748 124.848 182.499 125.144C182.244 125.441 182.16 125.732 182.249 126.01C182.327 126.254 182.594 126.449 183.039 126.592C183.483 126.734 184.231 126.894 185.275 127.072C186.438 127.25 187.186 127.422 187.506 127.589C188.159 127.974 188.675 128.74 189.049 129.897C189.25 130.531 189.333 131.095 189.286 131.587C189.215 132.08 189.007 132.614 188.657 133.177C188.307 133.747 187.933 134.156 187.542 134.406C187.15 134.655 186.729 134.856 186.284 134.999C185.447 135.272 184.593 135.367 183.715 135.29C182.837 135.212 182.137 134.975 181.615 134.566C181.187 134.251 180.867 133.765 180.653 133.112C180.511 132.667 180.487 132.335 180.582 132.115C180.677 131.843 180.843 131.659 181.087 131.581C181.401 131.481 182.036 131.534 182.985 131.742C183.934 131.949 184.623 131.985 185.056 131.843C185.388 131.736 185.661 131.504 185.874 131.142C186.011 130.875 186.082 130.715 186.076 130.674C186.076 130.638 185.981 130.573 185.791 130.49C185.287 130.347 184.694 130.211 183.994 130.086C181.318 129.612 179.722 128.591 179.218 127.025C179.117 126.711 179.063 126.414 179.063 126.147C178.969 124.592 179.645 123.37 181.087 122.492Z" fill="#FFDD8F"/>
</svg>
